<?xml version="1.0" encoding="utf-8" standalone="no"?>
<!DOCTYPE svg PUBLIC "-//W3C//DTD SVG 1.1//EN"
  "http://www.w3.org/Graphics/SVG/1.1/DTD/svg11.dtd">
<svg height="266.51625pt" version="1.1" viewBox="0 0 521.125 266.51625" width="521.125pt" xmlns="http://www.w3.org/2000/svg" xmlns:xlink="http://www.w3.org/1999/xlink">
 <metadata>
  <rdf:RDF xmlns:cc="http://creativecommons.org/ns#" xmlns:dc="http://purl.org/dc/elements/1.1/" xmlns:rdf="http://www.w3.org/1999/02/22-rdf-syntax-ns#">
   <cc:Work>
    <dc:type rdf:resource="http://purl.org/dc/dcmitype/StillImage"/>
    <dc:date>2022-06-28T22:42:07.577845</dc:date>
    <dc:format>image/svg+xml</dc:format>
    <dc:creator>
     <cc:Agent>
      <dc:title>Matplotlib v3.4.3, https://matplotlib.org/</dc:title>
     </cc:Agent>
    </dc:creator>
   </cc:Work>
  </rdf:RDF>
 </metadata>
 <defs>
  <style type="text/css">*{stroke-linecap:butt;stroke-linejoin:round;}</style>
 </defs>
 <g id="figure_1">
  <g id="patch_1">
   <path d="M 0 266.51625 
L 521.125 266.51625 
L 521.125 0 
L 0 0 
z
" style="fill:#ffffff;"/>
  </g>
  <g id="axes_1">
   <g id="patch_2">
    <path d="M 67.525 228.96 
L 513.925 228.96 
L 513.925 7.2 
L 67.525 7.2 
z
" style="fill:#ffffff;"/>
   </g>
   <g id="PolyCollection_1">
    <defs>
     <path d="M 87.815909 -203.607132 
L 87.815909 -204.145368 
L 91.915083 -204.268085 
L 96.014256 -204.437032 
L 100.11343 -204.665621 
L 104.212603 -204.969701 
L 108.311777 -205.367473 
L 112.41095 -205.879138 
L 116.510124 -206.526166 
L 120.609298 -207.330111 
L 124.708471 -208.310877 
L 128.807645 -209.484472 
L 132.906818 -210.860337 
L 137.005992 -212.438495 
L 141.105165 -214.206893 
L 145.204339 -216.139398 
L 149.303512 -218.194984 
L 153.402686 -220.318516 
L 157.50186 -222.443451 
L 161.601033 -224.496428 
L 165.700207 -226.40344 
L 169.79938 -228.09694 
L 173.898554 -229.522994 
L 177.997727 -230.647458 
L 182.096901 -231.460273 
L 186.196074 -231.97714 
L 190.295248 -232.238249 
L 194.394421 -232.30412 
L 198.493595 -232.249052 
L 202.592769 -232.152957 
L 206.691942 -232.092552 
L 210.791116 -232.132917 
L 214.890289 -232.320327 
L 218.989463 -232.677056 
L 223.088636 -233.198652 
L 227.18781 -233.853874 
L 231.286983 -234.587266 
L 235.386157 -235.324128 
L 239.485331 -235.977397 
L 243.584504 -236.455837 
L 247.683678 -236.672753 
L 251.782851 -236.554382 
L 255.882025 -236.047126 
L 259.981198 -235.122832 
L 264.080372 -233.781577 
L 268.179545 -232.051639 
L 272.278719 -229.986716 
L 276.377893 -227.66076 
L 280.477066 -225.161112 
L 284.57624 -222.580782 
L 288.675413 -220.01081 
L 292.774587 -217.533538 
L 296.87376 -215.217446 
L 300.972934 -213.113943 
L 305.072107 -211.256172 
L 309.171281 -209.659692 
L 313.270455 -208.324613 
L 317.369628 -207.238712 
L 321.468802 -206.380991 
L 325.567975 -205.725186 
L 329.667149 -205.24287 
L 333.766322 -204.905895 
L 337.865496 -204.688065 
L 341.964669 -204.566077 
L 346.063843 -204.519829 
L 350.163017 -204.532275 
L 354.26219 -204.58903 
L 358.361364 -204.6779 
L 362.460537 -204.788487 
L 366.559711 -204.911965 
L 370.658884 -205.041024 
L 374.758058 -205.169959 
L 378.857231 -205.294808 
L 382.956405 -205.413415 
L 387.055579 -205.525327 
L 391.154752 -205.631463 
L 395.253926 -205.73354 
L 399.353099 -205.833323 
L 403.452273 -205.931835 
L 407.551446 -206.028647 
L 411.65062 -206.121434 
L 415.749793 -206.205886 
L 419.848967 -206.276022 
L 423.94814 -206.324883 
L 428.047314 -206.34548 
L 432.146488 -206.331839 
L 436.245661 -206.279962 
L 440.344835 -206.188528 
L 444.444008 -206.059225 
L 448.543182 -205.89666 
L 452.642355 -205.707884 
L 456.741529 -205.501612 
L 460.840702 -205.287293 
L 464.939876 -205.074158 
L 469.03905 -204.870398 
L 473.138223 -204.682561 
L 477.237397 -204.515216 
L 481.33657 -204.370894 
L 485.435744 -204.250253 
L 489.534917 -204.152409 
L 493.634091 -204.075359 
L 493.634091 -203.677141 
L 493.634091 -203.677141 
L 489.534917 -203.600091 
L 485.435744 -203.502247 
L 481.33657 -203.381606 
L 477.237397 -203.237284 
L 473.138223 -203.069939 
L 469.03905 -202.882102 
L 464.939876 -202.678342 
L 460.840702 -202.465207 
L 456.741529 -202.250888 
L 452.642355 -202.044616 
L 448.543182 -201.85584 
L 444.444008 -201.693275 
L 440.344835 -201.563972 
L 436.245661 -201.472538 
L 432.146488 -201.420661 
L 428.047314 -201.40702 
L 423.94814 -201.427617 
L 419.848967 -201.476478 
L 415.749793 -201.546614 
L 411.65062 -201.631066 
L 407.551446 -201.723853 
L 403.452273 -201.820665 
L 399.353099 -201.919177 
L 395.253926 -202.01896 
L 391.154752 -202.121037 
L 387.055579 -202.227173 
L 382.956405 -202.339085 
L 378.857231 -202.457692 
L 374.758058 -202.582541 
L 370.658884 -202.711476 
L 366.559711 -202.840535 
L 362.460537 -202.964013 
L 358.361364 -203.0746 
L 354.26219 -203.16347 
L 350.163017 -203.220225 
L 346.063843 -203.232671 
L 341.964669 -203.186423 
L 337.865496 -203.064435 
L 333.766322 -202.846605 
L 329.667149 -202.50963 
L 325.567975 -202.027314 
L 321.468802 -201.371509 
L 317.369628 -200.513788 
L 313.270455 -199.427887 
L 309.171281 -198.092808 
L 305.072107 -196.496328 
L 300.972934 -194.638557 
L 296.87376 -192.535054 
L 292.774587 -190.218962 
L 288.675413 -187.74169 
L 284.57624 -185.171718 
L 280.477066 -182.591388 
L 276.377893 -180.09174 
L 272.278719 -177.765784 
L 268.179545 -175.700861 
L 264.080372 -173.970923 
L 259.981198 -172.629668 
L 255.882025 -171.705374 
L 251.782851 -171.198118 
L 247.683678 -171.079747 
L 243.584504 -171.296663 
L 239.485331 -171.775103 
L 235.386157 -172.428372 
L 231.286983 -173.165234 
L 227.18781 -173.898626 
L 223.088636 -174.553848 
L 218.989463 -175.075444 
L 214.890289 -175.432173 
L 210.791116 -175.619583 
L 206.691942 -175.659948 
L 202.592769 -175.599543 
L 198.493595 -175.503448 
L 194.394421 -175.44838 
L 190.295248 -175.514251 
L 186.196074 -175.77536 
L 182.096901 -176.292227 
L 177.997727 -177.105042 
L 173.898554 -178.229506 
L 169.79938 -179.65556 
L 165.700207 -181.34906 
L 161.601033 -183.256072 
L 157.50186 -185.309049 
L 153.402686 -187.433984 
L 149.303512 -189.557516 
L 145.204339 -191.613102 
L 141.105165 -193.545607 
L 137.005992 -195.314005 
L 132.906818 -196.892163 
L 128.807645 -198.268028 
L 124.708471 -199.441623 
L 120.609298 -200.422389 
L 116.510124 -201.226334 
L 112.41095 -201.873362 
L 108.311777 -202.385027 
L 104.212603 -202.782799 
L 100.11343 -203.086879 
L 96.014256 -203.315468 
L 91.915083 -203.484415 
L 87.815909 -203.607132 
z
" id="me111a067b5" style="stroke:#3f3f3f;stroke-width:1.5;"/>
    </defs>
    <g clip-path="url(#p5b3325240d)">
     <use style="fill:#3274a1;stroke:#3f3f3f;stroke-width:1.5;" x="0" xlink:href="#me111a067b5" y="266.51625"/>
    </g>
   </g>
   <g id="PolyCollection_2">
    <defs>
     <path d="M 108.859122 -91.928001 
L 108.859122 -94.064499 
L 111.068474 -94.370459 
L 113.277827 -94.74343 
L 115.487179 -95.191757 
L 117.696532 -95.723048 
L 119.905885 -96.343601 
L 122.115237 -97.057784 
L 124.32459 -97.867392 
L 126.533942 -98.771035 
L 128.743295 -99.763607 
L 130.952648 -100.835887 
L 133.162 -101.974334 
L 135.371353 -103.161111 
L 137.580705 -104.374384 
L 139.790058 -105.588902 
L 141.99941 -106.776855 
L 144.208763 -107.908978 
L 146.418116 -108.955851 
L 148.627468 -109.889321 
L 150.836821 -110.683946 
L 153.046173 -111.318381 
L 155.255526 -111.776599 
L 157.464879 -112.048865 
L 159.674231 -112.132386 
L 161.883584 -112.031606 
L 164.092936 -111.758114 
L 166.302289 -111.33018 
L 168.511642 -110.771965 
L 170.720994 -110.112451 
L 172.930347 -109.384172 
L 175.139699 -108.621841 
L 177.349052 -107.860939 
L 179.558405 -107.136353 
L 181.767757 -106.48113 
L 183.97711 -105.925394 
L 186.186462 -105.495453 
L 188.395815 -105.213117 
L 190.605168 -105.095228 
L 192.81452 -105.15338 
L 195.023873 -105.393833 
L 197.233225 -105.817578 
L 199.442578 -106.420555 
L 201.65193 -107.193999 
L 203.861283 -108.1249 
L 206.070636 -109.196578 
L 208.279988 -110.389359 
L 210.489341 -111.681343 
L 212.698693 -113.049259 
L 214.908046 -114.469374 
L 217.117399 -115.918437 
L 219.326751 -117.374611 
L 221.536104 -118.818348 
L 223.745456 -120.233149 
L 225.954809 -121.606154 
L 228.164162 -122.928501 
L 230.373514 -124.195414 
L 232.582867 -125.405985 
L 234.792219 -126.562643 
L 237.001572 -127.67032 
L 239.210925 -128.735361 
L 241.420277 -129.764247 
L 243.62963 -130.762222 
L 245.838982 -131.731933 
L 248.048335 -132.672215 
L 250.257688 -133.577114 
L 252.46704 -134.435286 
L 254.676393 -135.229825 
L 256.885745 -135.938591 
L 259.095098 -136.53503 
L 261.30445 -136.989462 
L 263.513803 -137.270751 
L 265.723156 -137.34825 
L 267.932508 -137.193871 
L 270.141861 -136.784122 
L 272.351213 -136.10195 
L 274.560566 -135.138244 
L 276.769919 -133.892876 
L 278.979271 -132.375183 
L 281.188624 -130.603882 
L 283.397976 -128.606392 
L 285.607329 -126.417639 
L 287.816682 -124.078442 
L 290.026034 -121.633591 
L 292.235387 -119.129765 
L 294.444739 -116.613449 
L 296.654092 -114.12897 
L 298.863445 -111.716785 
L 301.072797 -109.412109 
L 303.28215 -107.243935 
L 305.491502 -105.234476 
L 307.700855 -103.399013 
L 309.910207 -101.746117 
L 312.11956 -100.278179 
L 314.328913 -98.992173 
L 316.538265 -97.88058 
L 318.747618 -96.932386 
L 320.95697 -96.134082 
L 323.166323 -95.470615 
L 325.375676 -94.926231 
L 327.585028 -94.485199 
L 327.585028 -91.507301 
L 327.585028 -91.507301 
L 325.375676 -91.066269 
L 323.166323 -90.521885 
L 320.95697 -89.858418 
L 318.747618 -89.060114 
L 316.538265 -88.11192 
L 314.328913 -87.000327 
L 312.11956 -85.714321 
L 309.910207 -84.246383 
L 307.700855 -82.593487 
L 305.491502 -80.758024 
L 303.28215 -78.748565 
L 301.072797 -76.580391 
L 298.863445 -74.275715 
L 296.654092 -71.86353 
L 294.444739 -69.379051 
L 292.235387 -66.862735 
L 290.026034 -64.358909 
L 287.816682 -61.914058 
L 285.607329 -59.574861 
L 283.397976 -57.386108 
L 281.188624 -55.388618 
L 278.979271 -53.617317 
L 276.769919 -52.099624 
L 274.560566 -50.854256 
L 272.351213 -49.89055 
L 270.141861 -49.208378 
L 267.932508 -48.798629 
L 265.723156 -48.64425 
L 263.513803 -48.721749 
L 261.30445 -49.003038 
L 259.095098 -49.45747 
L 256.885745 -50.053909 
L 254.676393 -50.762675 
L 252.46704 -51.557214 
L 250.257688 -52.415386 
L 248.048335 -53.320285 
L 245.838982 -54.260567 
L 243.62963 -55.230278 
L 241.420277 -56.228253 
L 239.210925 -57.257139 
L 237.001572 -58.32218 
L 234.792219 -59.429857 
L 232.582867 -60.586515 
L 230.373514 -61.797086 
L 228.164162 -63.063999 
L 225.954809 -64.386346 
L 223.745456 -65.759351 
L 221.536104 -67.174152 
L 219.326751 -68.617889 
L 217.117399 -70.074063 
L 214.908046 -71.523126 
L 212.698693 -72.943241 
L 210.489341 -74.311157 
L 208.279988 -75.603141 
L 206.070636 -76.795922 
L 203.861283 -77.8676 
L 201.65193 -78.798501 
L 199.442578 -79.571945 
L 197.233225 -80.174922 
L 195.023873 -80.598667 
L 192.81452 -80.83912 
L 190.605168 -80.897272 
L 188.395815 -80.779383 
L 186.186462 -80.497047 
L 183.97711 -80.067106 
L 181.767757 -79.51137 
L 179.558405 -78.856147 
L 177.349052 -78.131561 
L 175.139699 -77.370659 
L 172.930347 -76.608328 
L 170.720994 -75.880049 
L 168.511642 -75.220535 
L 166.302289 -74.66232 
L 164.092936 -74.234386 
L 161.883584 -73.960894 
L 159.674231 -73.860114 
L 157.464879 -73.943635 
L 155.255526 -74.215901 
L 153.046173 -74.674119 
L 150.836821 -75.308554 
L 148.627468 -76.103179 
L 146.418116 -77.036649 
L 144.208763 -78.083522 
L 141.99941 -79.215645 
L 139.790058 -80.403598 
L 137.580705 -81.618116 
L 135.371353 -82.831389 
L 133.162 -84.018166 
L 130.952648 -85.156613 
L 128.743295 -86.228893 
L 126.533942 -87.221465 
L 124.32459 -88.125108 
L 122.115237 -88.934716 
L 119.905885 -89.648899 
L 117.696532 -90.269452 
L 115.487179 -90.800743 
L 113.277827 -91.24907 
L 111.068474 -91.622041 
L 108.859122 -91.928001 
z
" id="mc069c4043b" style="stroke:#3f3f3f;stroke-width:1.5;"/>
    </defs>
    <g clip-path="url(#p5b3325240d)">
     <use style="fill:#e1812c;stroke:#3f3f3f;stroke-width:1.5;" x="0" xlink:href="#mc069c4043b" y="266.51625"/>
    </g>
   </g>
   <g id="line2d_1">
    <path clip-path="url(#p5b3325240d)" d="M 204.113091 60.356253 
L 148.672919 168.261893 
" style="fill:none;stroke:#808080;stroke-linecap:square;stroke-width:0.5;"/>
   </g>
   <g id="line2d_2">
    <path clip-path="url(#p5b3325240d)" d="M 175.664091 64.337234 
L 155.476524 171.317265 
" style="fill:none;stroke:#808080;stroke-linecap:square;stroke-width:0.5;"/>
   </g>
   <g id="line2d_3">
    <path clip-path="url(#p5b3325240d)" d="M 175.664091 62.356832 
L 155.476524 173.560146 
" style="fill:none;stroke:#808080;stroke-linecap:square;stroke-width:0.5;"/>
   </g>
   <g id="line2d_4">
    <path clip-path="url(#p5b3325240d)" d="M 175.664091 63.458426 
L 155.476524 177.676701 
" style="fill:none;stroke:#808080;stroke-linecap:square;stroke-width:0.5;"/>
   </g>
   <g id="line2d_5">
    <path clip-path="url(#p5b3325240d)" d="M 175.664091 61.564109 
L 155.476524 171.472875 
" style="fill:none;stroke:#808080;stroke-linecap:square;stroke-width:0.5;"/>
   </g>
   <g id="line2d_6">
    <path clip-path="url(#p5b3325240d)" d="M 175.664091 66.959379 
L 155.476524 164.667941 
" style="fill:none;stroke:#808080;stroke-linecap:square;stroke-width:0.5;"/>
   </g>
   <g id="line2d_7">
    <path clip-path="url(#p5b3325240d)" d="M 175.664091 65.997542 
L 155.476524 177.033016 
" style="fill:none;stroke:#808080;stroke-linecap:square;stroke-width:0.5;"/>
   </g>
   <g id="line2d_8">
    <path clip-path="url(#p5b3325240d)" d="M 175.664091 66.951614 
L 155.476524 177.575943 
" style="fill:none;stroke:#808080;stroke-linecap:square;stroke-width:0.5;"/>
   </g>
   <g id="line2d_9">
    <path clip-path="url(#p5b3325240d)" d="M 191.071693 62.511991 
L 156.864431 164.588596 
" style="fill:none;stroke:#808080;stroke-linecap:square;stroke-width:0.5;"/>
   </g>
   <g id="line2d_10">
    <path clip-path="url(#p5b3325240d)" d="M 179.425389 58.059338 
L 160.938724 175.495649 
" style="fill:none;stroke:#808080;stroke-linecap:square;stroke-width:0.5;"/>
   </g>
   <g id="line2d_11">
    <path clip-path="url(#p5b3325240d)" d="M 166.6989 64.491166 
L 166.99472 174.872554 
" style="fill:none;stroke:#808080;stroke-linecap:square;stroke-width:0.5;"/>
   </g>
   <g id="line2d_12">
    <path clip-path="url(#p5b3325240d)" d="M 154.250373 56.385557 
L 170.66838 170.165198 
" style="fill:none;stroke:#808080;stroke-linecap:square;stroke-width:0.5;"/>
   </g>
   <g id="line2d_13">
    <path clip-path="url(#p5b3325240d)" d="M 139.110178 64.567991 
L 172.192216 172.168561 
" style="fill:none;stroke:#808080;stroke-linecap:square;stroke-width:0.5;"/>
   </g>
   <g id="line2d_14">
    <path clip-path="url(#p5b3325240d)" d="M 426.696479 58.914779 
L 196.301732 171.641049 
" style="fill:none;stroke:#808080;stroke-linecap:square;stroke-width:0.5;"/>
   </g>
   <g id="line2d_15">
    <path clip-path="url(#p5b3325240d)" d="M 182.310576 64.514048 
L 211.912107 171.337208 
" style="fill:none;stroke:#808080;stroke-linecap:square;stroke-width:0.5;"/>
   </g>
   <g id="line2d_16">
    <path clip-path="url(#p5b3325240d)" d="M 264.43989 59.64664 
L 216.483614 173.509237 
" style="fill:none;stroke:#808080;stroke-linecap:square;stroke-width:0.5;"/>
   </g>
   <g id="line2d_17">
    <path clip-path="url(#p5b3325240d)" d="M 169.992235 65.433254 
L 220.196623 181.462311 
" style="fill:none;stroke:#808080;stroke-linecap:square;stroke-width:0.5;"/>
   </g>
   <g id="line2d_18">
    <path clip-path="url(#p5b3325240d)" d="M 199.966514 60.776662 
L 221.423561 170.464334 
" style="fill:none;stroke:#808080;stroke-linecap:square;stroke-width:0.5;"/>
   </g>
   <g id="line2d_19">
    <path clip-path="url(#p5b3325240d)" d="M 191.187805 70.364846 
L 221.491526 173.215985 
" style="fill:none;stroke:#808080;stroke-linecap:square;stroke-width:0.5;"/>
   </g>
   <g id="line2d_20">
    <path clip-path="url(#p5b3325240d)" d="M 162.244452 64.000095 
L 227.043153 171.460817 
" style="fill:none;stroke:#808080;stroke-linecap:square;stroke-width:0.5;"/>
   </g>
   <g id="line2d_21">
    <path clip-path="url(#p5b3325240d)" d="M 184.488541 63.917153 
L 228.559835 171.673792 
" style="fill:none;stroke:#808080;stroke-linecap:square;stroke-width:0.5;"/>
   </g>
   <g id="line2d_22">
    <path clip-path="url(#p5b3325240d)" d="M 215.954673 65.493505 
L 229.346792 166.691703 
" style="fill:none;stroke:#808080;stroke-linecap:square;stroke-width:0.5;"/>
   </g>
   <g id="line2d_23">
    <path clip-path="url(#p5b3325240d)" d="M 272.588784 68.136874 
L 230.244639 180.633829 
" style="fill:none;stroke:#808080;stroke-linecap:square;stroke-width:0.5;"/>
   </g>
   <g id="line2d_24">
    <path clip-path="url(#p5b3325240d)" d="M 272.69434 63.812322 
L 232.30146 172.259753 
" style="fill:none;stroke:#808080;stroke-linecap:square;stroke-width:0.5;"/>
   </g>
   <g id="line2d_25">
    <path clip-path="url(#p5b3325240d)" d="M 233.761907 62.295067 
L 234.154387 174.341182 
" style="fill:none;stroke:#808080;stroke-linecap:square;stroke-width:0.5;"/>
   </g>
   <g id="line2d_26">
    <path clip-path="url(#p5b3325240d)" d="M 223.357641 69.969701 
L 235.359863 174.259886 
" style="fill:none;stroke:#808080;stroke-linecap:square;stroke-width:0.5;"/>
   </g>
   <g id="line2d_27">
    <path clip-path="url(#p5b3325240d)" d="M 190.512249 63.236685 
L 238.386072 179.878515 
" style="fill:none;stroke:#808080;stroke-linecap:square;stroke-width:0.5;"/>
   </g>
   <g id="line2d_28">
    <path clip-path="url(#p5b3325240d)" d="M 206.261148 61.500623 
L 241.183348 175.706275 
" style="fill:none;stroke:#808080;stroke-linecap:square;stroke-width:0.5;"/>
   </g>
   <g id="line2d_29">
    <path clip-path="url(#p5b3325240d)" d="M 175.321035 61.534472 
L 241.408704 179.452139 
" style="fill:none;stroke:#808080;stroke-linecap:square;stroke-width:0.5;"/>
   </g>
   <g id="line2d_30">
    <path clip-path="url(#p5b3325240d)" d="M 220.21912 63.33848 
L 243.426177 173.360782 
" style="fill:none;stroke:#808080;stroke-linecap:square;stroke-width:0.5;"/>
   </g>
   <g id="line2d_31">
    <path clip-path="url(#p5b3325240d)" d="M 253.110253 65.487347 
L 244.338332 175.444459 
" style="fill:none;stroke:#808080;stroke-linecap:square;stroke-width:0.5;"/>
   </g>
   <g id="line2d_32">
    <path clip-path="url(#p5b3325240d)" d="M 256.938404 60.954759 
L 245.339914 172.416091 
" style="fill:none;stroke:#808080;stroke-linecap:square;stroke-width:0.5;"/>
   </g>
   <g id="line2d_33">
    <path clip-path="url(#p5b3325240d)" d="M 187.753728 64.06285 
L 248.763179 171.612651 
" style="fill:none;stroke:#808080;stroke-linecap:square;stroke-width:0.5;"/>
   </g>
   <g id="line2d_34">
    <path clip-path="url(#p5b3325240d)" d="M 260.460443 59.196528 
L 257.827499 173.116303 
" style="fill:none;stroke:#808080;stroke-linecap:square;stroke-width:0.5;"/>
   </g>
   <g id="line2d_35">
    <path clip-path="url(#p5b3325240d)" d="M 198.471143 66.297982 
L 258.32829 173.958784 
" style="fill:none;stroke:#808080;stroke-linecap:square;stroke-width:0.5;"/>
   </g>
   <g id="line2d_36">
    <path clip-path="url(#p5b3325240d)" d="M 235.637278 64.366294 
L 262.094955 179.104209 
" style="fill:none;stroke:#808080;stroke-linecap:square;stroke-width:0.5;"/>
   </g>
   <g id="line2d_37">
    <path clip-path="url(#p5b3325240d)" d="M 257.944701 67.477313 
L 262.420469 171.764356 
" style="fill:none;stroke:#808080;stroke-linecap:square;stroke-width:0.5;"/>
   </g>
   <g id="line2d_38">
    <path clip-path="url(#p5b3325240d)" d="M 248.163213 61.073378 
L 263.160924 177.83655 
" style="fill:none;stroke:#808080;stroke-linecap:square;stroke-width:0.5;"/>
   </g>
   <g id="line2d_39">
    <path clip-path="url(#p5b3325240d)" d="M 442.339822 66.365804 
L 263.701063 177.077762 
" style="fill:none;stroke:#808080;stroke-linecap:square;stroke-width:0.5;"/>
   </g>
   <g id="line2d_40">
    <path clip-path="url(#p5b3325240d)" d="M 253.71192 61.38595 
L 267.800396 166.051788 
" style="fill:none;stroke:#808080;stroke-linecap:square;stroke-width:0.5;"/>
   </g>
   <g id="line2d_41">
    <path clip-path="url(#p5b3325240d)" d="M 247.188582 61.53991 
L 268.394192 170.696959 
" style="fill:none;stroke:#808080;stroke-linecap:square;stroke-width:0.5;"/>
   </g>
   <g id="line2d_42">
    <path clip-path="url(#p5b3325240d)" d="M 260.147295 64.179259 
L 268.708975 176.406108 
" style="fill:none;stroke:#808080;stroke-linecap:square;stroke-width:0.5;"/>
   </g>
   <g id="line2d_43">
    <path clip-path="url(#p5b3325240d)" d="M 211.58467 62.931835 
L 269.30277 177.077191 
" style="fill:none;stroke:#808080;stroke-linecap:square;stroke-width:0.5;"/>
   </g>
   <g id="line2d_44">
    <path clip-path="url(#p5b3325240d)" d="M 242.753487 64.17519 
L 270.844491 173.261199 
" style="fill:none;stroke:#808080;stroke-linecap:square;stroke-width:0.5;"/>
   </g>
   <g id="line2d_45">
    <path clip-path="url(#p5b3325240d)" d="M 253.296735 58.26833 
L 272.243129 168.766116 
" style="fill:none;stroke:#808080;stroke-linecap:square;stroke-width:0.5;"/>
   </g>
   <g id="line2d_46">
    <path clip-path="url(#p5b3325240d)" d="M 233.628203 56.508051 
L 272.4506 172.712292 
" style="fill:none;stroke:#808080;stroke-linecap:square;stroke-width:0.5;"/>
   </g>
   <g id="line2d_47">
    <path clip-path="url(#p5b3325240d)" d="M 261.424518 68.156172 
L 272.926351 175.590998 
" style="fill:none;stroke:#808080;stroke-linecap:square;stroke-width:0.5;"/>
   </g>
   <g id="line2d_48">
    <path clip-path="url(#p5b3325240d)" d="M 234.60987 61.035554 
L 275.158449 176.870931 
" style="fill:none;stroke:#808080;stroke-linecap:square;stroke-width:0.5;"/>
   </g>
   <g id="line2d_49">
    <path clip-path="url(#p5b3325240d)" d="M 255.921551 63.273688 
L 275.509003 173.875406 
" style="fill:none;stroke:#808080;stroke-linecap:square;stroke-width:0.5;"/>
   </g>
   <g id="line2d_50">
    <path clip-path="url(#p5b3325240d)" d="M 267.300447 62.619085 
L 275.74509 174.763182 
" style="fill:none;stroke:#808080;stroke-linecap:square;stroke-width:0.5;"/>
   </g>
   <g id="line2d_51">
    <path clip-path="url(#p5b3325240d)" d="M 235.75339 65.070895 
L 276.23515 166.603879 
" style="fill:none;stroke:#808080;stroke-linecap:square;stroke-width:0.5;"/>
   </g>
   <g id="line2d_52">
    <path clip-path="url(#p5b3325240d)" d="M 251.153955 63.209531 
L 276.95772 169.164995 
" style="fill:none;stroke:#808080;stroke-linecap:square;stroke-width:0.5;"/>
   </g>
   <g id="line2d_53">
    <path clip-path="url(#p5b3325240d)" d="M 384.491821 65.266841 
L 277.147305 175.060605 
" style="fill:none;stroke:#808080;stroke-linecap:square;stroke-width:0.5;"/>
   </g>
   <g id="line2d_54">
    <path clip-path="url(#p5b3325240d)" d="M 257.645626 65.831598 
L 279.819384 175.507983 
" style="fill:none;stroke:#808080;stroke-linecap:square;stroke-width:0.5;"/>
   </g>
   <g id="line2d_55">
    <path clip-path="url(#p5b3325240d)" d="M 280.343604 54.266153 
L 280.023277 172.01855 
" style="fill:none;stroke:#808080;stroke-linecap:square;stroke-width:0.5;"/>
   </g>
   <g id="line2d_56">
    <path clip-path="url(#p5b3325240d)" d="M 234.694315 69.305585 
L 280.849582 173.753984 
" style="fill:none;stroke:#808080;stroke-linecap:square;stroke-width:0.5;"/>
   </g>
   <g id="line2d_57">
    <path clip-path="url(#p5b3325240d)" d="M 273.834341 59.19647 
L 282.82413 179.08299 
" style="fill:none;stroke:#808080;stroke-linecap:square;stroke-width:0.5;"/>
   </g>
   <g id="line2d_58">
    <path clip-path="url(#p5b3325240d)" d="M 284.981015 57.461613 
L 283.274842 172.408744 
" style="fill:none;stroke:#808080;stroke-linecap:square;stroke-width:0.5;"/>
   </g>
   <g id="line2d_59">
    <path clip-path="url(#p5b3325240d)" d="M 272.152488 55.093424 
L 287.438563 169.69818 
" style="fill:none;stroke:#808080;stroke-linecap:square;stroke-width:0.5;"/>
   </g>
   <g id="line2d_60">
    <path clip-path="url(#p5b3325240d)" d="M 258.954516 67.324294 
L 287.771231 172.195214 
" style="fill:none;stroke:#808080;stroke-linecap:square;stroke-width:0.5;"/>
   </g>
   <g id="matplotlib.axis_1">
    <g id="xtick_1">
     <g id="line2d_61">
      <defs>
       <path d="M 0 0 
L 0 3.5 
" id="ma680f2a3ea" style="stroke:#000000;stroke-width:0.8;"/>
      </defs>
      <g>
       <use style="stroke:#000000;stroke-width:0.8;" x="126.012836" xlink:href="#ma680f2a3ea" y="228.96"/>
      </g>
     </g>
     <g id="text_1">
      <!-- 0.6 -->
      <g transform="translate(118.061273 243.558437)scale(0.1 -0.1)">
       <defs>
        <path d="M 2034 4250 
Q 1547 4250 1301 3770 
Q 1056 3291 1056 2328 
Q 1056 1369 1301 889 
Q 1547 409 2034 409 
Q 2525 409 2770 889 
Q 3016 1369 3016 2328 
Q 3016 3291 2770 3770 
Q 2525 4250 2034 4250 
z
M 2034 4750 
Q 2819 4750 3233 4129 
Q 3647 3509 3647 2328 
Q 3647 1150 3233 529 
Q 2819 -91 2034 -91 
Q 1250 -91 836 529 
Q 422 1150 422 2328 
Q 422 3509 836 4129 
Q 1250 4750 2034 4750 
z
" id="DejaVuSans-30" transform="scale(0.015625)"/>
        <path d="M 684 794 
L 1344 794 
L 1344 0 
L 684 0 
L 684 794 
z
" id="DejaVuSans-2e" transform="scale(0.015625)"/>
        <path d="M 2113 2584 
Q 1688 2584 1439 2293 
Q 1191 2003 1191 1497 
Q 1191 994 1439 701 
Q 1688 409 2113 409 
Q 2538 409 2786 701 
Q 3034 994 3034 1497 
Q 3034 2003 2786 2293 
Q 2538 2584 2113 2584 
z
M 3366 4563 
L 3366 3988 
Q 3128 4100 2886 4159 
Q 2644 4219 2406 4219 
Q 1781 4219 1451 3797 
Q 1122 3375 1075 2522 
Q 1259 2794 1537 2939 
Q 1816 3084 2150 3084 
Q 2853 3084 3261 2657 
Q 3669 2231 3669 1497 
Q 3669 778 3244 343 
Q 2819 -91 2113 -91 
Q 1303 -91 875 529 
Q 447 1150 447 2328 
Q 447 3434 972 4092 
Q 1497 4750 2381 4750 
Q 2619 4750 2861 4703 
Q 3103 4656 3366 4563 
z
" id="DejaVuSans-36" transform="scale(0.015625)"/>
       </defs>
       <use xlink:href="#DejaVuSans-30"/>
       <use x="63.623047" xlink:href="#DejaVuSans-2e"/>
       <use x="95.410156" xlink:href="#DejaVuSans-36"/>
      </g>
     </g>
    </g>
    <g id="xtick_2">
     <g id="line2d_62">
      <g>
       <use style="stroke:#000000;stroke-width:0.8;" x="207.020093" xlink:href="#ma680f2a3ea" y="228.96"/>
      </g>
     </g>
     <g id="text_2">
      <!-- 0.7 -->
      <g transform="translate(199.06853 243.558437)scale(0.1 -0.1)">
       <defs>
        <path d="M 525 4666 
L 3525 4666 
L 3525 4397 
L 1831 0 
L 1172 0 
L 2766 4134 
L 525 4134 
L 525 4666 
z
" id="DejaVuSans-37" transform="scale(0.015625)"/>
       </defs>
       <use xlink:href="#DejaVuSans-30"/>
       <use x="63.623047" xlink:href="#DejaVuSans-2e"/>
       <use x="95.410156" xlink:href="#DejaVuSans-37"/>
      </g>
     </g>
    </g>
    <g id="xtick_3">
     <g id="line2d_63">
      <g>
       <use style="stroke:#000000;stroke-width:0.8;" x="288.02735" xlink:href="#ma680f2a3ea" y="228.96"/>
      </g>
     </g>
     <g id="text_3">
      <!-- 0.8 -->
      <g transform="translate(280.075788 243.558437)scale(0.1 -0.1)">
       <defs>
        <path d="M 2034 2216 
Q 1584 2216 1326 1975 
Q 1069 1734 1069 1313 
Q 1069 891 1326 650 
Q 1584 409 2034 409 
Q 2484 409 2743 651 
Q 3003 894 3003 1313 
Q 3003 1734 2745 1975 
Q 2488 2216 2034 2216 
z
M 1403 2484 
Q 997 2584 770 2862 
Q 544 3141 544 3541 
Q 544 4100 942 4425 
Q 1341 4750 2034 4750 
Q 2731 4750 3128 4425 
Q 3525 4100 3525 3541 
Q 3525 3141 3298 2862 
Q 3072 2584 2669 2484 
Q 3125 2378 3379 2068 
Q 3634 1759 3634 1313 
Q 3634 634 3220 271 
Q 2806 -91 2034 -91 
Q 1263 -91 848 271 
Q 434 634 434 1313 
Q 434 1759 690 2068 
Q 947 2378 1403 2484 
z
M 1172 3481 
Q 1172 3119 1398 2916 
Q 1625 2713 2034 2713 
Q 2441 2713 2670 2916 
Q 2900 3119 2900 3481 
Q 2900 3844 2670 4047 
Q 2441 4250 2034 4250 
Q 1625 4250 1398 4047 
Q 1172 3844 1172 3481 
z
" id="DejaVuSans-38" transform="scale(0.015625)"/>
       </defs>
       <use xlink:href="#DejaVuSans-30"/>
       <use x="63.623047" xlink:href="#DejaVuSans-2e"/>
       <use x="95.410156" xlink:href="#DejaVuSans-38"/>
      </g>
     </g>
    </g>
    <g id="xtick_4">
     <g id="line2d_64">
      <g>
       <use style="stroke:#000000;stroke-width:0.8;" x="369.034607" xlink:href="#ma680f2a3ea" y="228.96"/>
      </g>
     </g>
     <g id="text_4">
      <!-- 0.9 -->
      <g transform="translate(361.083045 243.558437)scale(0.1 -0.1)">
       <defs>
        <path d="M 703 97 
L 703 672 
Q 941 559 1184 500 
Q 1428 441 1663 441 
Q 2288 441 2617 861 
Q 2947 1281 2994 2138 
Q 2813 1869 2534 1725 
Q 2256 1581 1919 1581 
Q 1219 1581 811 2004 
Q 403 2428 403 3163 
Q 403 3881 828 4315 
Q 1253 4750 1959 4750 
Q 2769 4750 3195 4129 
Q 3622 3509 3622 2328 
Q 3622 1225 3098 567 
Q 2575 -91 1691 -91 
Q 1453 -91 1209 -44 
Q 966 3 703 97 
z
M 1959 2075 
Q 2384 2075 2632 2365 
Q 2881 2656 2881 3163 
Q 2881 3666 2632 3958 
Q 2384 4250 1959 4250 
Q 1534 4250 1286 3958 
Q 1038 3666 1038 3163 
Q 1038 2656 1286 2365 
Q 1534 2075 1959 2075 
z
" id="DejaVuSans-39" transform="scale(0.015625)"/>
       </defs>
       <use xlink:href="#DejaVuSans-30"/>
       <use x="63.623047" xlink:href="#DejaVuSans-2e"/>
       <use x="95.410156" xlink:href="#DejaVuSans-39"/>
      </g>
     </g>
    </g>
    <g id="xtick_5">
     <g id="line2d_65">
      <g>
       <use style="stroke:#000000;stroke-width:0.8;" x="450.041865" xlink:href="#ma680f2a3ea" y="228.96"/>
      </g>
     </g>
     <g id="text_5">
      <!-- 1.0 -->
      <g transform="translate(442.090302 243.558437)scale(0.1 -0.1)">
       <defs>
        <path d="M 794 531 
L 1825 531 
L 1825 4091 
L 703 3866 
L 703 4441 
L 1819 4666 
L 2450 4666 
L 2450 531 
L 3481 531 
L 3481 0 
L 794 0 
L 794 531 
z
" id="DejaVuSans-31" transform="scale(0.015625)"/>
       </defs>
       <use xlink:href="#DejaVuSans-31"/>
       <use x="63.623047" xlink:href="#DejaVuSans-2e"/>
       <use x="95.410156" xlink:href="#DejaVuSans-30"/>
      </g>
     </g>
    </g>
    <g id="text_6">
     <!-- ROC AUC -->
     <g transform="translate(267.663281 257.236562)scale(0.1 -0.1)">
      <defs>
       <path d="M 2841 2188 
Q 3044 2119 3236 1894 
Q 3428 1669 3622 1275 
L 4263 0 
L 3584 0 
L 2988 1197 
Q 2756 1666 2539 1819 
Q 2322 1972 1947 1972 
L 1259 1972 
L 1259 0 
L 628 0 
L 628 4666 
L 2053 4666 
Q 2853 4666 3247 4331 
Q 3641 3997 3641 3322 
Q 3641 2881 3436 2590 
Q 3231 2300 2841 2188 
z
M 1259 4147 
L 1259 2491 
L 2053 2491 
Q 2509 2491 2742 2702 
Q 2975 2913 2975 3322 
Q 2975 3731 2742 3939 
Q 2509 4147 2053 4147 
L 1259 4147 
z
" id="DejaVuSans-52" transform="scale(0.015625)"/>
       <path d="M 2522 4238 
Q 1834 4238 1429 3725 
Q 1025 3213 1025 2328 
Q 1025 1447 1429 934 
Q 1834 422 2522 422 
Q 3209 422 3611 934 
Q 4013 1447 4013 2328 
Q 4013 3213 3611 3725 
Q 3209 4238 2522 4238 
z
M 2522 4750 
Q 3503 4750 4090 4092 
Q 4678 3434 4678 2328 
Q 4678 1225 4090 567 
Q 3503 -91 2522 -91 
Q 1538 -91 948 565 
Q 359 1222 359 2328 
Q 359 3434 948 4092 
Q 1538 4750 2522 4750 
z
" id="DejaVuSans-4f" transform="scale(0.015625)"/>
       <path d="M 4122 4306 
L 4122 3641 
Q 3803 3938 3442 4084 
Q 3081 4231 2675 4231 
Q 1875 4231 1450 3742 
Q 1025 3253 1025 2328 
Q 1025 1406 1450 917 
Q 1875 428 2675 428 
Q 3081 428 3442 575 
Q 3803 722 4122 1019 
L 4122 359 
Q 3791 134 3420 21 
Q 3050 -91 2638 -91 
Q 1578 -91 968 557 
Q 359 1206 359 2328 
Q 359 3453 968 4101 
Q 1578 4750 2638 4750 
Q 3056 4750 3426 4639 
Q 3797 4528 4122 4306 
z
" id="DejaVuSans-43" transform="scale(0.015625)"/>
       <path id="DejaVuSans-20" transform="scale(0.015625)"/>
       <path d="M 2188 4044 
L 1331 1722 
L 3047 1722 
L 2188 4044 
z
M 1831 4666 
L 2547 4666 
L 4325 0 
L 3669 0 
L 3244 1197 
L 1141 1197 
L 716 0 
L 50 0 
L 1831 4666 
z
" id="DejaVuSans-41" transform="scale(0.015625)"/>
       <path d="M 556 4666 
L 1191 4666 
L 1191 1831 
Q 1191 1081 1462 751 
Q 1734 422 2344 422 
Q 2950 422 3222 751 
Q 3494 1081 3494 1831 
L 3494 4666 
L 4128 4666 
L 4128 1753 
Q 4128 841 3676 375 
Q 3225 -91 2344 -91 
Q 1459 -91 1007 375 
Q 556 841 556 1753 
L 556 4666 
z
" id="DejaVuSans-55" transform="scale(0.015625)"/>
      </defs>
      <use xlink:href="#DejaVuSans-52"/>
      <use x="69.482422" xlink:href="#DejaVuSans-4f"/>
      <use x="148.193359" xlink:href="#DejaVuSans-43"/>
      <use x="218.017578" xlink:href="#DejaVuSans-20"/>
      <use x="249.804688" xlink:href="#DejaVuSans-41"/>
      <use x="318.212891" xlink:href="#DejaVuSans-55"/>
      <use x="391.40625" xlink:href="#DejaVuSans-43"/>
     </g>
    </g>
   </g>
   <g id="matplotlib.axis_2">
    <g id="ytick_1">
     <g id="line2d_66">
      <defs>
       <path d="M 0 0 
L -3.5 0 
" id="m3c6dcedca0" style="stroke:#000000;stroke-width:0.8;"/>
      </defs>
      <g>
       <use style="stroke:#000000;stroke-width:0.8;" x="67.525" xlink:href="#m3c6dcedca0" y="62.64"/>
      </g>
     </g>
     <g id="text_7">
      <!-- Public set -->
      <g transform="translate(12.46875 66.439219)scale(0.1 -0.1)">
       <defs>
        <path d="M 1259 4147 
L 1259 2394 
L 2053 2394 
Q 2494 2394 2734 2622 
Q 2975 2850 2975 3272 
Q 2975 3691 2734 3919 
Q 2494 4147 2053 4147 
L 1259 4147 
z
M 628 4666 
L 2053 4666 
Q 2838 4666 3239 4311 
Q 3641 3956 3641 3272 
Q 3641 2581 3239 2228 
Q 2838 1875 2053 1875 
L 1259 1875 
L 1259 0 
L 628 0 
L 628 4666 
z
" id="DejaVuSans-50" transform="scale(0.015625)"/>
        <path d="M 544 1381 
L 544 3500 
L 1119 3500 
L 1119 1403 
Q 1119 906 1312 657 
Q 1506 409 1894 409 
Q 2359 409 2629 706 
Q 2900 1003 2900 1516 
L 2900 3500 
L 3475 3500 
L 3475 0 
L 2900 0 
L 2900 538 
Q 2691 219 2414 64 
Q 2138 -91 1772 -91 
Q 1169 -91 856 284 
Q 544 659 544 1381 
z
M 1991 3584 
L 1991 3584 
z
" id="DejaVuSans-75" transform="scale(0.015625)"/>
        <path d="M 3116 1747 
Q 3116 2381 2855 2742 
Q 2594 3103 2138 3103 
Q 1681 3103 1420 2742 
Q 1159 2381 1159 1747 
Q 1159 1113 1420 752 
Q 1681 391 2138 391 
Q 2594 391 2855 752 
Q 3116 1113 3116 1747 
z
M 1159 2969 
Q 1341 3281 1617 3432 
Q 1894 3584 2278 3584 
Q 2916 3584 3314 3078 
Q 3713 2572 3713 1747 
Q 3713 922 3314 415 
Q 2916 -91 2278 -91 
Q 1894 -91 1617 61 
Q 1341 213 1159 525 
L 1159 0 
L 581 0 
L 581 4863 
L 1159 4863 
L 1159 2969 
z
" id="DejaVuSans-62" transform="scale(0.015625)"/>
        <path d="M 603 4863 
L 1178 4863 
L 1178 0 
L 603 0 
L 603 4863 
z
" id="DejaVuSans-6c" transform="scale(0.015625)"/>
        <path d="M 603 3500 
L 1178 3500 
L 1178 0 
L 603 0 
L 603 3500 
z
M 603 4863 
L 1178 4863 
L 1178 4134 
L 603 4134 
L 603 4863 
z
" id="DejaVuSans-69" transform="scale(0.015625)"/>
        <path d="M 3122 3366 
L 3122 2828 
Q 2878 2963 2633 3030 
Q 2388 3097 2138 3097 
Q 1578 3097 1268 2742 
Q 959 2388 959 1747 
Q 959 1106 1268 751 
Q 1578 397 2138 397 
Q 2388 397 2633 464 
Q 2878 531 3122 666 
L 3122 134 
Q 2881 22 2623 -34 
Q 2366 -91 2075 -91 
Q 1284 -91 818 406 
Q 353 903 353 1747 
Q 353 2603 823 3093 
Q 1294 3584 2113 3584 
Q 2378 3584 2631 3529 
Q 2884 3475 3122 3366 
z
" id="DejaVuSans-63" transform="scale(0.015625)"/>
        <path d="M 2834 3397 
L 2834 2853 
Q 2591 2978 2328 3040 
Q 2066 3103 1784 3103 
Q 1356 3103 1142 2972 
Q 928 2841 928 2578 
Q 928 2378 1081 2264 
Q 1234 2150 1697 2047 
L 1894 2003 
Q 2506 1872 2764 1633 
Q 3022 1394 3022 966 
Q 3022 478 2636 193 
Q 2250 -91 1575 -91 
Q 1294 -91 989 -36 
Q 684 19 347 128 
L 347 722 
Q 666 556 975 473 
Q 1284 391 1588 391 
Q 1994 391 2212 530 
Q 2431 669 2431 922 
Q 2431 1156 2273 1281 
Q 2116 1406 1581 1522 
L 1381 1569 
Q 847 1681 609 1914 
Q 372 2147 372 2553 
Q 372 3047 722 3315 
Q 1072 3584 1716 3584 
Q 2034 3584 2315 3537 
Q 2597 3491 2834 3397 
z
" id="DejaVuSans-73" transform="scale(0.015625)"/>
        <path d="M 3597 1894 
L 3597 1613 
L 953 1613 
Q 991 1019 1311 708 
Q 1631 397 2203 397 
Q 2534 397 2845 478 
Q 3156 559 3463 722 
L 3463 178 
Q 3153 47 2828 -22 
Q 2503 -91 2169 -91 
Q 1331 -91 842 396 
Q 353 884 353 1716 
Q 353 2575 817 3079 
Q 1281 3584 2069 3584 
Q 2775 3584 3186 3129 
Q 3597 2675 3597 1894 
z
M 3022 2063 
Q 3016 2534 2758 2815 
Q 2500 3097 2075 3097 
Q 1594 3097 1305 2825 
Q 1016 2553 972 2059 
L 3022 2063 
z
" id="DejaVuSans-65" transform="scale(0.015625)"/>
        <path d="M 1172 4494 
L 1172 3500 
L 2356 3500 
L 2356 3053 
L 1172 3053 
L 1172 1153 
Q 1172 725 1289 603 
Q 1406 481 1766 481 
L 2356 481 
L 2356 0 
L 1766 0 
Q 1100 0 847 248 
Q 594 497 594 1153 
L 594 3053 
L 172 3053 
L 172 3500 
L 594 3500 
L 594 4494 
L 1172 4494 
z
" id="DejaVuSans-74" transform="scale(0.015625)"/>
       </defs>
       <use xlink:href="#DejaVuSans-50"/>
       <use x="58.552734" xlink:href="#DejaVuSans-75"/>
       <use x="121.931641" xlink:href="#DejaVuSans-62"/>
       <use x="185.408203" xlink:href="#DejaVuSans-6c"/>
       <use x="213.191406" xlink:href="#DejaVuSans-69"/>
       <use x="240.974609" xlink:href="#DejaVuSans-63"/>
       <use x="295.955078" xlink:href="#DejaVuSans-20"/>
       <use x="327.742188" xlink:href="#DejaVuSans-73"/>
       <use x="379.841797" xlink:href="#DejaVuSans-65"/>
       <use x="441.365234" xlink:href="#DejaVuSans-74"/>
      </g>
     </g>
    </g>
    <g id="ytick_2">
     <g id="line2d_67">
      <g>
       <use style="stroke:#000000;stroke-width:0.8;" x="67.525" xlink:href="#m3c6dcedca0" y="173.52"/>
      </g>
     </g>
     <g id="text_8">
      <!-- Private set -->
      <g transform="translate(7.2 177.319219)scale(0.1 -0.1)">
       <defs>
        <path d="M 2631 2963 
Q 2534 3019 2420 3045 
Q 2306 3072 2169 3072 
Q 1681 3072 1420 2755 
Q 1159 2438 1159 1844 
L 1159 0 
L 581 0 
L 581 3500 
L 1159 3500 
L 1159 2956 
Q 1341 3275 1631 3429 
Q 1922 3584 2338 3584 
Q 2397 3584 2469 3576 
Q 2541 3569 2628 3553 
L 2631 2963 
z
" id="DejaVuSans-72" transform="scale(0.015625)"/>
        <path d="M 191 3500 
L 800 3500 
L 1894 563 
L 2988 3500 
L 3597 3500 
L 2284 0 
L 1503 0 
L 191 3500 
z
" id="DejaVuSans-76" transform="scale(0.015625)"/>
        <path d="M 2194 1759 
Q 1497 1759 1228 1600 
Q 959 1441 959 1056 
Q 959 750 1161 570 
Q 1363 391 1709 391 
Q 2188 391 2477 730 
Q 2766 1069 2766 1631 
L 2766 1759 
L 2194 1759 
z
M 3341 1997 
L 3341 0 
L 2766 0 
L 2766 531 
Q 2569 213 2275 61 
Q 1981 -91 1556 -91 
Q 1019 -91 701 211 
Q 384 513 384 1019 
Q 384 1609 779 1909 
Q 1175 2209 1959 2209 
L 2766 2209 
L 2766 2266 
Q 2766 2663 2505 2880 
Q 2244 3097 1772 3097 
Q 1472 3097 1187 3025 
Q 903 2953 641 2809 
L 641 3341 
Q 956 3463 1253 3523 
Q 1550 3584 1831 3584 
Q 2591 3584 2966 3190 
Q 3341 2797 3341 1997 
z
" id="DejaVuSans-61" transform="scale(0.015625)"/>
       </defs>
       <use xlink:href="#DejaVuSans-50"/>
       <use x="58.552734" xlink:href="#DejaVuSans-72"/>
       <use x="99.666016" xlink:href="#DejaVuSans-69"/>
       <use x="127.449219" xlink:href="#DejaVuSans-76"/>
       <use x="186.628906" xlink:href="#DejaVuSans-61"/>
       <use x="247.908203" xlink:href="#DejaVuSans-74"/>
       <use x="287.117188" xlink:href="#DejaVuSans-65"/>
       <use x="348.640625" xlink:href="#DejaVuSans-20"/>
       <use x="380.427734" xlink:href="#DejaVuSans-73"/>
       <use x="432.527344" xlink:href="#DejaVuSans-65"/>
       <use x="494.050781" xlink:href="#DejaVuSans-74"/>
      </g>
     </g>
    </g>
   </g>
   <g id="PathCollection_1">
    <defs>
     <path d="M 0 5 
C 1.326016 5 2.597899 4.473168 3.535534 3.535534 
C 4.473168 2.597899 5 1.326016 5 -0 
C 5 -1.326016 4.473168 -2.597899 3.535534 -3.535534 
C 2.597899 -4.473168 1.326016 -5 0 -5 
C -1.326016 -5 -2.597899 -4.473168 -3.535534 -3.535534 
C -4.473168 -2.597899 -5 -1.326016 -5 0 
C -5 1.326016 -4.473168 2.597899 -3.535534 3.535534 
C -2.597899 4.473168 -1.326016 5 0 5 
z
" id="C0_0_9b0df0619b"/>
    </defs>
    <g clip-path="url(#p5b3325240d)">
     <use style="fill:#808080;stroke:#ffffff;stroke-width:0.5;" x="204.113091" xlink:href="#C0_0_9b0df0619b" y="60.356253"/>
    </g>
    <g clip-path="url(#p5b3325240d)">
     <use style="fill:#808080;stroke:#ffffff;stroke-width:0.5;" x="175.664091" xlink:href="#C0_0_9b0df0619b" y="64.337234"/>
    </g>
    <g clip-path="url(#p5b3325240d)">
     <use style="fill:#808080;stroke:#ffffff;stroke-width:0.5;" x="175.664091" xlink:href="#C0_0_9b0df0619b" y="62.356832"/>
    </g>
    <g clip-path="url(#p5b3325240d)">
     <use style="fill:#808080;stroke:#ffffff;stroke-width:0.5;" x="175.664091" xlink:href="#C0_0_9b0df0619b" y="63.458426"/>
    </g>
    <g clip-path="url(#p5b3325240d)">
     <use style="fill:#808080;stroke:#ffffff;stroke-width:0.5;" x="175.664091" xlink:href="#C0_0_9b0df0619b" y="61.564109"/>
    </g>
    <g clip-path="url(#p5b3325240d)">
     <use style="fill:#808080;stroke:#ffffff;stroke-width:0.5;" x="175.664091" xlink:href="#C0_0_9b0df0619b" y="66.959379"/>
    </g>
    <g clip-path="url(#p5b3325240d)">
     <use style="fill:#808080;stroke:#ffffff;stroke-width:0.5;" x="175.664091" xlink:href="#C0_0_9b0df0619b" y="65.997542"/>
    </g>
    <g clip-path="url(#p5b3325240d)">
     <use style="fill:#808080;stroke:#ffffff;stroke-width:0.5;" x="175.664091" xlink:href="#C0_0_9b0df0619b" y="66.951614"/>
    </g>
    <g clip-path="url(#p5b3325240d)">
     <use style="fill:#808080;stroke:#ffffff;stroke-width:0.5;" x="191.071693" xlink:href="#C0_0_9b0df0619b" y="62.511991"/>
    </g>
    <g clip-path="url(#p5b3325240d)">
     <use style="fill:#808080;stroke:#ffffff;stroke-width:0.5;" x="179.425389" xlink:href="#C0_0_9b0df0619b" y="58.059338"/>
    </g>
    <g clip-path="url(#p5b3325240d)">
     <use style="fill:#808080;stroke:#ffffff;stroke-width:0.5;" x="166.6989" xlink:href="#C0_0_9b0df0619b" y="64.491166"/>
    </g>
    <g clip-path="url(#p5b3325240d)">
     <use style="fill:#808080;stroke:#ffffff;stroke-width:0.5;" x="154.250373" xlink:href="#C0_0_9b0df0619b" y="56.385557"/>
    </g>
    <g clip-path="url(#p5b3325240d)">
     <use style="fill:#808080;stroke:#ffffff;stroke-width:0.5;" x="139.110178" xlink:href="#C0_0_9b0df0619b" y="64.567991"/>
    </g>
    <g clip-path="url(#p5b3325240d)">
     <use style="stroke:#ffffff;stroke-width:0.5;" x="426.696479" xlink:href="#C0_0_9b0df0619b" y="58.914779"/>
    </g>
    <g clip-path="url(#p5b3325240d)">
     <use style="fill:#808080;stroke:#ffffff;stroke-width:0.5;" x="182.310576" xlink:href="#C0_0_9b0df0619b" y="64.514048"/>
    </g>
    <g clip-path="url(#p5b3325240d)">
     <use style="fill:#808080;stroke:#ffffff;stroke-width:0.5;" x="264.43989" xlink:href="#C0_0_9b0df0619b" y="59.64664"/>
    </g>
    <g clip-path="url(#p5b3325240d)">
     <use style="fill:#808080;stroke:#ffffff;stroke-width:0.5;" x="169.992235" xlink:href="#C0_0_9b0df0619b" y="65.433254"/>
    </g>
    <g clip-path="url(#p5b3325240d)">
     <use style="fill:#808080;stroke:#ffffff;stroke-width:0.5;" x="199.966514" xlink:href="#C0_0_9b0df0619b" y="60.776662"/>
    </g>
    <g clip-path="url(#p5b3325240d)">
     <use style="fill:#808080;stroke:#ffffff;stroke-width:0.5;" x="191.187805" xlink:href="#C0_0_9b0df0619b" y="70.364846"/>
    </g>
    <g clip-path="url(#p5b3325240d)">
     <use style="fill:#808080;stroke:#ffffff;stroke-width:0.5;" x="162.244452" xlink:href="#C0_0_9b0df0619b" y="64.000095"/>
    </g>
    <g clip-path="url(#p5b3325240d)">
     <use style="fill:#808080;stroke:#ffffff;stroke-width:0.5;" x="184.488541" xlink:href="#C0_0_9b0df0619b" y="63.917153"/>
    </g>
    <g clip-path="url(#p5b3325240d)">
     <use style="fill:#808080;stroke:#ffffff;stroke-width:0.5;" x="215.954673" xlink:href="#C0_0_9b0df0619b" y="65.493505"/>
    </g>
    <g clip-path="url(#p5b3325240d)">
     <use style="fill:#808080;stroke:#ffffff;stroke-width:0.5;" x="272.588784" xlink:href="#C0_0_9b0df0619b" y="68.136874"/>
    </g>
    <g clip-path="url(#p5b3325240d)">
     <use style="fill:#808080;stroke:#ffffff;stroke-width:0.5;" x="272.69434" xlink:href="#C0_0_9b0df0619b" y="63.812322"/>
    </g>
    <g clip-path="url(#p5b3325240d)">
     <use style="fill:#808080;stroke:#ffffff;stroke-width:0.5;" x="233.761907" xlink:href="#C0_0_9b0df0619b" y="62.295067"/>
    </g>
    <g clip-path="url(#p5b3325240d)">
     <use style="fill:#808080;stroke:#ffffff;stroke-width:0.5;" x="223.357641" xlink:href="#C0_0_9b0df0619b" y="69.969701"/>
    </g>
    <g clip-path="url(#p5b3325240d)">
     <use style="fill:#808080;stroke:#ffffff;stroke-width:0.5;" x="190.512249" xlink:href="#C0_0_9b0df0619b" y="63.236685"/>
    </g>
    <g clip-path="url(#p5b3325240d)">
     <use style="fill:#808080;stroke:#ffffff;stroke-width:0.5;" x="206.261148" xlink:href="#C0_0_9b0df0619b" y="61.500623"/>
    </g>
    <g clip-path="url(#p5b3325240d)">
     <use style="fill:#808080;stroke:#ffffff;stroke-width:0.5;" x="175.321035" xlink:href="#C0_0_9b0df0619b" y="61.534472"/>
    </g>
    <g clip-path="url(#p5b3325240d)">
     <use style="fill:#808080;stroke:#ffffff;stroke-width:0.5;" x="220.21912" xlink:href="#C0_0_9b0df0619b" y="63.33848"/>
    </g>
    <g clip-path="url(#p5b3325240d)">
     <use style="fill:#808080;stroke:#ffffff;stroke-width:0.5;" x="253.110253" xlink:href="#C0_0_9b0df0619b" y="65.487347"/>
    </g>
    <g clip-path="url(#p5b3325240d)">
     <use style="fill:#808080;stroke:#ffffff;stroke-width:0.5;" x="256.938404" xlink:href="#C0_0_9b0df0619b" y="60.954759"/>
    </g>
    <g clip-path="url(#p5b3325240d)">
     <use style="fill:#808080;stroke:#ffffff;stroke-width:0.5;" x="187.753728" xlink:href="#C0_0_9b0df0619b" y="64.06285"/>
    </g>
    <g clip-path="url(#p5b3325240d)">
     <use style="fill:#808080;stroke:#ffffff;stroke-width:0.5;" x="260.460443" xlink:href="#C0_0_9b0df0619b" y="59.196528"/>
    </g>
    <g clip-path="url(#p5b3325240d)">
     <use style="fill:#808080;stroke:#ffffff;stroke-width:0.5;" x="198.471143" xlink:href="#C0_0_9b0df0619b" y="66.297982"/>
    </g>
    <g clip-path="url(#p5b3325240d)">
     <use style="fill:#808080;stroke:#ffffff;stroke-width:0.5;" x="235.637278" xlink:href="#C0_0_9b0df0619b" y="64.366294"/>
    </g>
    <g clip-path="url(#p5b3325240d)">
     <use style="fill:#808080;stroke:#ffffff;stroke-width:0.5;" x="257.944701" xlink:href="#C0_0_9b0df0619b" y="67.477313"/>
    </g>
    <g clip-path="url(#p5b3325240d)">
     <use style="fill:#808080;stroke:#ffffff;stroke-width:0.5;" x="248.163213" xlink:href="#C0_0_9b0df0619b" y="61.073378"/>
    </g>
    <g clip-path="url(#p5b3325240d)">
     <use style="stroke:#ffffff;stroke-width:0.5;" x="442.339822" xlink:href="#C0_0_9b0df0619b" y="66.365804"/>
    </g>
    <g clip-path="url(#p5b3325240d)">
     <use style="fill:#808080;stroke:#ffffff;stroke-width:0.5;" x="253.71192" xlink:href="#C0_0_9b0df0619b" y="61.38595"/>
    </g>
    <g clip-path="url(#p5b3325240d)">
     <use style="fill:#808080;stroke:#ffffff;stroke-width:0.5;" x="247.188582" xlink:href="#C0_0_9b0df0619b" y="61.53991"/>
    </g>
    <g clip-path="url(#p5b3325240d)">
     <use style="fill:#808080;stroke:#ffffff;stroke-width:0.5;" x="260.147295" xlink:href="#C0_0_9b0df0619b" y="64.179259"/>
    </g>
    <g clip-path="url(#p5b3325240d)">
     <use style="fill:#808080;stroke:#ffffff;stroke-width:0.5;" x="211.58467" xlink:href="#C0_0_9b0df0619b" y="62.931835"/>
    </g>
    <g clip-path="url(#p5b3325240d)">
     <use style="fill:#808080;stroke:#ffffff;stroke-width:0.5;" x="242.753487" xlink:href="#C0_0_9b0df0619b" y="64.17519"/>
    </g>
    <g clip-path="url(#p5b3325240d)">
     <use style="fill:#ffffff;stroke:#000000;stroke-width:0.5;" x="253.296735" xlink:href="#C0_0_9b0df0619b" y="58.26833"/>
    </g>
    <g clip-path="url(#p5b3325240d)">
     <use style="fill:#808080;stroke:#ffffff;stroke-width:0.5;" x="233.628203" xlink:href="#C0_0_9b0df0619b" y="56.508051"/>
    </g>
    <g clip-path="url(#p5b3325240d)">
     <use style="fill:#ffffff;stroke:#000000;stroke-width:0.5;" x="261.424518" xlink:href="#C0_0_9b0df0619b" y="68.156172"/>
    </g>
    <g clip-path="url(#p5b3325240d)">
     <use style="fill:#808080;stroke:#ffffff;stroke-width:0.5;" x="234.60987" xlink:href="#C0_0_9b0df0619b" y="61.035554"/>
    </g>
    <g clip-path="url(#p5b3325240d)">
     <use style="fill:#ffffff;stroke:#000000;stroke-width:0.5;" x="255.921551" xlink:href="#C0_0_9b0df0619b" y="63.273688"/>
    </g>
    <g clip-path="url(#p5b3325240d)">
     <use style="fill:#808080;stroke:#ffffff;stroke-width:0.5;" x="267.300447" xlink:href="#C0_0_9b0df0619b" y="62.619085"/>
    </g>
    <g clip-path="url(#p5b3325240d)">
     <use style="fill:#ffffff;stroke:#000000;stroke-width:0.5;" x="235.75339" xlink:href="#C0_0_9b0df0619b" y="65.070895"/>
    </g>
    <g clip-path="url(#p5b3325240d)">
     <use style="fill:#808080;stroke:#ffffff;stroke-width:0.5;" x="251.153955" xlink:href="#C0_0_9b0df0619b" y="63.209531"/>
    </g>
    <g clip-path="url(#p5b3325240d)">
     <use style="stroke:#ffffff;stroke-width:0.5;" x="384.491821" xlink:href="#C0_0_9b0df0619b" y="65.266841"/>
    </g>
    <g clip-path="url(#p5b3325240d)">
     <use style="fill:#ffffff;stroke:#000000;stroke-width:0.5;" x="257.645626" xlink:href="#C0_0_9b0df0619b" y="65.831598"/>
    </g>
    <g clip-path="url(#p5b3325240d)">
     <use style="fill:#ffffff;stroke:#000000;stroke-width:0.5;" x="280.343604" xlink:href="#C0_0_9b0df0619b" y="54.266153"/>
    </g>
    <g clip-path="url(#p5b3325240d)">
     <use style="fill:#ffffff;stroke:#000000;stroke-width:0.5;" x="234.694315" xlink:href="#C0_0_9b0df0619b" y="69.305585"/>
    </g>
    <g clip-path="url(#p5b3325240d)">
     <use style="fill:#ffffff;stroke:#000000;stroke-width:0.5;" x="273.834341" xlink:href="#C0_0_9b0df0619b" y="59.19647"/>
    </g>
    <g clip-path="url(#p5b3325240d)">
     <use style="fill:#ffffff;stroke:#000000;stroke-width:0.5;" x="284.981015" xlink:href="#C0_0_9b0df0619b" y="57.461613"/>
    </g>
    <g clip-path="url(#p5b3325240d)">
     <use style="fill:#ffffff;stroke:#000000;stroke-width:0.5;" x="272.152488" xlink:href="#C0_0_9b0df0619b" y="55.093424"/>
    </g>
    <g clip-path="url(#p5b3325240d)">
     <use style="fill:#808080;stroke:#ffffff;stroke-width:0.5;" x="258.954516" xlink:href="#C0_0_9b0df0619b" y="67.324294"/>
    </g>
   </g>
   <g id="PathCollection_2">
    <defs>
     <path d="M 0 5 
C 1.326016 5 2.597899 4.473168 3.535534 3.535534 
C 4.473168 2.597899 5 1.326016 5 -0 
C 5 -1.326016 4.473168 -2.597899 3.535534 -3.535534 
C 2.597899 -4.473168 1.326016 -5 0 -5 
C -1.326016 -5 -2.597899 -4.473168 -3.535534 -3.535534 
C -4.473168 -2.597899 -5 -1.326016 -5 0 
C -5 1.326016 -4.473168 2.597899 -3.535534 3.535534 
C -2.597899 4.473168 -1.326016 5 0 5 
z
" id="C1_0_6303908660"/>
    </defs>
    <g clip-path="url(#p5b3325240d)">
     <use style="fill:#808080;stroke:#ffffff;stroke-width:0.5;" x="148.672919" xlink:href="#C1_0_6303908660" y="168.261893"/>
    </g>
    <g clip-path="url(#p5b3325240d)">
     <use style="fill:#808080;stroke:#ffffff;stroke-width:0.5;" x="155.476524" xlink:href="#C1_0_6303908660" y="171.317265"/>
    </g>
    <g clip-path="url(#p5b3325240d)">
     <use style="fill:#808080;stroke:#ffffff;stroke-width:0.5;" x="155.476524" xlink:href="#C1_0_6303908660" y="173.560146"/>
    </g>
    <g clip-path="url(#p5b3325240d)">
     <use style="fill:#808080;stroke:#ffffff;stroke-width:0.5;" x="155.476524" xlink:href="#C1_0_6303908660" y="177.676701"/>
    </g>
    <g clip-path="url(#p5b3325240d)">
     <use style="fill:#808080;stroke:#ffffff;stroke-width:0.5;" x="155.476524" xlink:href="#C1_0_6303908660" y="171.472875"/>
    </g>
    <g clip-path="url(#p5b3325240d)">
     <use style="fill:#808080;stroke:#ffffff;stroke-width:0.5;" x="155.476524" xlink:href="#C1_0_6303908660" y="164.667941"/>
    </g>
    <g clip-path="url(#p5b3325240d)">
     <use style="fill:#808080;stroke:#ffffff;stroke-width:0.5;" x="155.476524" xlink:href="#C1_0_6303908660" y="177.033016"/>
    </g>
    <g clip-path="url(#p5b3325240d)">
     <use style="fill:#808080;stroke:#ffffff;stroke-width:0.5;" x="155.476524" xlink:href="#C1_0_6303908660" y="177.575943"/>
    </g>
    <g clip-path="url(#p5b3325240d)">
     <use style="fill:#808080;stroke:#ffffff;stroke-width:0.5;" x="156.864431" xlink:href="#C1_0_6303908660" y="164.588596"/>
    </g>
    <g clip-path="url(#p5b3325240d)">
     <use style="fill:#808080;stroke:#ffffff;stroke-width:0.5;" x="160.938724" xlink:href="#C1_0_6303908660" y="175.495649"/>
    </g>
    <g clip-path="url(#p5b3325240d)">
     <use style="fill:#808080;stroke:#ffffff;stroke-width:0.5;" x="166.99472" xlink:href="#C1_0_6303908660" y="174.872554"/>
    </g>
    <g clip-path="url(#p5b3325240d)">
     <use style="fill:#808080;stroke:#ffffff;stroke-width:0.5;" x="170.66838" xlink:href="#C1_0_6303908660" y="170.165198"/>
    </g>
    <g clip-path="url(#p5b3325240d)">
     <use style="fill:#808080;stroke:#ffffff;stroke-width:0.5;" x="172.192216" xlink:href="#C1_0_6303908660" y="172.168561"/>
    </g>
    <g clip-path="url(#p5b3325240d)">
     <use style="stroke:#ffffff;stroke-width:0.5;" x="196.301732" xlink:href="#C1_0_6303908660" y="171.641049"/>
    </g>
    <g clip-path="url(#p5b3325240d)">
     <use style="fill:#808080;stroke:#ffffff;stroke-width:0.5;" x="211.912107" xlink:href="#C1_0_6303908660" y="171.337208"/>
    </g>
    <g clip-path="url(#p5b3325240d)">
     <use style="fill:#808080;stroke:#ffffff;stroke-width:0.5;" x="216.483614" xlink:href="#C1_0_6303908660" y="173.509237"/>
    </g>
    <g clip-path="url(#p5b3325240d)">
     <use style="fill:#808080;stroke:#ffffff;stroke-width:0.5;" x="220.196623" xlink:href="#C1_0_6303908660" y="181.462311"/>
    </g>
    <g clip-path="url(#p5b3325240d)">
     <use style="fill:#808080;stroke:#ffffff;stroke-width:0.5;" x="221.423561" xlink:href="#C1_0_6303908660" y="170.464334"/>
    </g>
    <g clip-path="url(#p5b3325240d)">
     <use style="fill:#808080;stroke:#ffffff;stroke-width:0.5;" x="221.491526" xlink:href="#C1_0_6303908660" y="173.215985"/>
    </g>
    <g clip-path="url(#p5b3325240d)">
     <use style="fill:#808080;stroke:#ffffff;stroke-width:0.5;" x="227.043153" xlink:href="#C1_0_6303908660" y="171.460817"/>
    </g>
    <g clip-path="url(#p5b3325240d)">
     <use style="fill:#808080;stroke:#ffffff;stroke-width:0.5;" x="228.559835" xlink:href="#C1_0_6303908660" y="171.673792"/>
    </g>
    <g clip-path="url(#p5b3325240d)">
     <use style="fill:#808080;stroke:#ffffff;stroke-width:0.5;" x="229.346792" xlink:href="#C1_0_6303908660" y="166.691703"/>
    </g>
    <g clip-path="url(#p5b3325240d)">
     <use style="fill:#808080;stroke:#ffffff;stroke-width:0.5;" x="230.244639" xlink:href="#C1_0_6303908660" y="180.633829"/>
    </g>
    <g clip-path="url(#p5b3325240d)">
     <use style="fill:#808080;stroke:#ffffff;stroke-width:0.5;" x="232.30146" xlink:href="#C1_0_6303908660" y="172.259753"/>
    </g>
    <g clip-path="url(#p5b3325240d)">
     <use style="fill:#808080;stroke:#ffffff;stroke-width:0.5;" x="234.154387" xlink:href="#C1_0_6303908660" y="174.341182"/>
    </g>
    <g clip-path="url(#p5b3325240d)">
     <use style="fill:#808080;stroke:#ffffff;stroke-width:0.5;" x="235.359863" xlink:href="#C1_0_6303908660" y="174.259886"/>
    </g>
    <g clip-path="url(#p5b3325240d)">
     <use style="fill:#808080;stroke:#ffffff;stroke-width:0.5;" x="238.386072" xlink:href="#C1_0_6303908660" y="179.878515"/>
    </g>
    <g clip-path="url(#p5b3325240d)">
     <use style="fill:#808080;stroke:#ffffff;stroke-width:0.5;" x="241.183348" xlink:href="#C1_0_6303908660" y="175.706275"/>
    </g>
    <g clip-path="url(#p5b3325240d)">
     <use style="fill:#808080;stroke:#ffffff;stroke-width:0.5;" x="241.408704" xlink:href="#C1_0_6303908660" y="179.452139"/>
    </g>
    <g clip-path="url(#p5b3325240d)">
     <use style="fill:#808080;stroke:#ffffff;stroke-width:0.5;" x="243.426177" xlink:href="#C1_0_6303908660" y="173.360782"/>
    </g>
    <g clip-path="url(#p5b3325240d)">
     <use style="fill:#808080;stroke:#ffffff;stroke-width:0.5;" x="244.338332" xlink:href="#C1_0_6303908660" y="175.444459"/>
    </g>
    <g clip-path="url(#p5b3325240d)">
     <use style="fill:#808080;stroke:#ffffff;stroke-width:0.5;" x="245.339914" xlink:href="#C1_0_6303908660" y="172.416091"/>
    </g>
    <g clip-path="url(#p5b3325240d)">
     <use style="fill:#808080;stroke:#ffffff;stroke-width:0.5;" x="248.763179" xlink:href="#C1_0_6303908660" y="171.612651"/>
    </g>
    <g clip-path="url(#p5b3325240d)">
     <use style="fill:#808080;stroke:#ffffff;stroke-width:0.5;" x="257.827499" xlink:href="#C1_0_6303908660" y="173.116303"/>
    </g>
    <g clip-path="url(#p5b3325240d)">
     <use style="fill:#808080;stroke:#ffffff;stroke-width:0.5;" x="258.32829" xlink:href="#C1_0_6303908660" y="173.958784"/>
    </g>
    <g clip-path="url(#p5b3325240d)">
     <use style="fill:#808080;stroke:#ffffff;stroke-width:0.5;" x="262.094955" xlink:href="#C1_0_6303908660" y="179.104209"/>
    </g>
    <g clip-path="url(#p5b3325240d)">
     <use style="fill:#808080;stroke:#ffffff;stroke-width:0.5;" x="262.420469" xlink:href="#C1_0_6303908660" y="171.764356"/>
    </g>
    <g clip-path="url(#p5b3325240d)">
     <use style="fill:#808080;stroke:#ffffff;stroke-width:0.5;" x="263.160924" xlink:href="#C1_0_6303908660" y="177.83655"/>
    </g>
    <g clip-path="url(#p5b3325240d)">
     <use style="stroke:#ffffff;stroke-width:0.5;" x="263.701063" xlink:href="#C1_0_6303908660" y="177.077762"/>
    </g>
    <g clip-path="url(#p5b3325240d)">
     <use style="fill:#808080;stroke:#ffffff;stroke-width:0.5;" x="267.800396" xlink:href="#C1_0_6303908660" y="166.051788"/>
    </g>
    <g clip-path="url(#p5b3325240d)">
     <use style="fill:#808080;stroke:#ffffff;stroke-width:0.5;" x="268.394192" xlink:href="#C1_0_6303908660" y="170.696959"/>
    </g>
    <g clip-path="url(#p5b3325240d)">
     <use style="fill:#808080;stroke:#ffffff;stroke-width:0.5;" x="268.708975" xlink:href="#C1_0_6303908660" y="176.406108"/>
    </g>
    <g clip-path="url(#p5b3325240d)">
     <use style="fill:#808080;stroke:#ffffff;stroke-width:0.5;" x="269.30277" xlink:href="#C1_0_6303908660" y="177.077191"/>
    </g>
    <g clip-path="url(#p5b3325240d)">
     <use style="fill:#808080;stroke:#ffffff;stroke-width:0.5;" x="270.844491" xlink:href="#C1_0_6303908660" y="173.261199"/>
    </g>
    <g clip-path="url(#p5b3325240d)">
     <use style="fill:#ffffff;stroke:#000000;stroke-width:0.5;" x="272.243129" xlink:href="#C1_0_6303908660" y="168.766116"/>
    </g>
    <g clip-path="url(#p5b3325240d)">
     <use style="fill:#808080;stroke:#ffffff;stroke-width:0.5;" x="272.4506" xlink:href="#C1_0_6303908660" y="172.712292"/>
    </g>
    <g clip-path="url(#p5b3325240d)">
     <use style="fill:#ffffff;stroke:#000000;stroke-width:0.5;" x="272.926351" xlink:href="#C1_0_6303908660" y="175.590998"/>
    </g>
    <g clip-path="url(#p5b3325240d)">
     <use style="fill:#808080;stroke:#ffffff;stroke-width:0.5;" x="275.158449" xlink:href="#C1_0_6303908660" y="176.870931"/>
    </g>
    <g clip-path="url(#p5b3325240d)">
     <use style="fill:#ffffff;stroke:#000000;stroke-width:0.5;" x="275.509003" xlink:href="#C1_0_6303908660" y="173.875406"/>
    </g>
    <g clip-path="url(#p5b3325240d)">
     <use style="fill:#808080;stroke:#ffffff;stroke-width:0.5;" x="275.74509" xlink:href="#C1_0_6303908660" y="174.763182"/>
    </g>
    <g clip-path="url(#p5b3325240d)">
     <use style="fill:#ffffff;stroke:#000000;stroke-width:0.5;" x="276.23515" xlink:href="#C1_0_6303908660" y="166.603879"/>
    </g>
    <g clip-path="url(#p5b3325240d)">
     <use style="fill:#808080;stroke:#ffffff;stroke-width:0.5;" x="276.95772" xlink:href="#C1_0_6303908660" y="169.164995"/>
    </g>
    <g clip-path="url(#p5b3325240d)">
     <use style="stroke:#ffffff;stroke-width:0.5;" x="277.147305" xlink:href="#C1_0_6303908660" y="175.060605"/>
    </g>
    <g clip-path="url(#p5b3325240d)">
     <use style="fill:#ffffff;stroke:#000000;stroke-width:0.5;" x="279.819384" xlink:href="#C1_0_6303908660" y="175.507983"/>
    </g>
    <g clip-path="url(#p5b3325240d)">
     <use style="fill:#ffffff;stroke:#000000;stroke-width:0.5;" x="280.023277" xlink:href="#C1_0_6303908660" y="172.01855"/>
    </g>
    <g clip-path="url(#p5b3325240d)">
     <use style="fill:#ffffff;stroke:#000000;stroke-width:0.5;" x="280.849582" xlink:href="#C1_0_6303908660" y="173.753984"/>
    </g>
    <g clip-path="url(#p5b3325240d)">
     <use style="fill:#ffffff;stroke:#000000;stroke-width:0.5;" x="282.82413" xlink:href="#C1_0_6303908660" y="179.08299"/>
    </g>
    <g clip-path="url(#p5b3325240d)">
     <use style="fill:#ffffff;stroke:#000000;stroke-width:0.5;" x="283.274842" xlink:href="#C1_0_6303908660" y="172.408744"/>
    </g>
    <g clip-path="url(#p5b3325240d)">
     <use style="fill:#ffffff;stroke:#000000;stroke-width:0.5;" x="287.438563" xlink:href="#C1_0_6303908660" y="169.69818"/>
    </g>
    <g clip-path="url(#p5b3325240d)">
     <use style="fill:#808080;stroke:#ffffff;stroke-width:0.5;" x="287.771231" xlink:href="#C1_0_6303908660" y="172.195214"/>
    </g>
   </g>
   <g id="patch_3">
    <path d="M 67.525 228.96 
L 67.525 7.2 
" style="fill:none;stroke:#000000;stroke-linecap:square;stroke-linejoin:miter;stroke-width:0.8;"/>
   </g>
   <g id="patch_4">
    <path d="M 513.925 228.96 
L 513.925 7.2 
" style="fill:none;stroke:#000000;stroke-linecap:square;stroke-linejoin:miter;stroke-width:0.8;"/>
   </g>
   <g id="patch_5">
    <path d="M 67.525 228.96 
L 513.925 228.96 
" style="fill:none;stroke:#000000;stroke-linecap:square;stroke-linejoin:miter;stroke-width:0.8;"/>
   </g>
   <g id="patch_6">
    <path d="M 67.525 7.2 
L 513.925 7.2 
" style="fill:none;stroke:#000000;stroke-linecap:square;stroke-linejoin:miter;stroke-width:0.8;"/>
   </g>
  </g>
 </g>
 <defs>
  <clipPath id="p5b3325240d">
   <rect height="221.76" width="446.4" x="67.525" y="7.2"/>
  </clipPath>
 </defs>
</svg>
