<?xml version="1.0" encoding="utf-8" standalone="no"?>
<!DOCTYPE svg PUBLIC "-//W3C//DTD SVG 1.1//EN"
  "http://www.w3.org/Graphics/SVG/1.1/DTD/svg11.dtd">
<svg height="432pt" version="1.1" viewBox="0 0 1440 432" width="1440pt" xmlns="http://www.w3.org/2000/svg" xmlns:xlink="http://www.w3.org/1999/xlink">
 <metadata>
  <rdf:RDF xmlns:cc="http://creativecommons.org/ns#" xmlns:dc="http://purl.org/dc/elements/1.1/" xmlns:rdf="http://www.w3.org/1999/02/22-rdf-syntax-ns#">
   <cc:Work>
    <dc:type rdf:resource="http://purl.org/dc/dcmitype/StillImage"/>
    <dc:date>2022-02-09T15:17:29.753476</dc:date>
    <dc:format>image/svg+xml</dc:format>
    <dc:creator>
     <cc:Agent>
      <dc:title>Matplotlib v3.4.3, https://matplotlib.org/</dc:title>
     </cc:Agent>
    </dc:creator>
   </cc:Work>
  </rdf:RDF>
 </metadata>
 <defs>
  <style type="text/css">*{stroke-linecap:butt;stroke-linejoin:round;}</style>
 </defs>
 <g id="figure_1">
  <g id="patch_1">
   <path d="M 0 432 
L 1440 432 
L 1440 0 
L 0 0 
z
" style="fill:#ffffff;"/>
  </g>
  <g id="axes_1">
   <g id="patch_2">
    <path d="M 144 388.8 
L 576 388.8 
L 576 302.4 
L 144 302.4 
z
" style="fill:#ffffff;"/>
   </g>
   <g id="patch_3">
    <path clip-path="url(#pa98950ad56)" d="M 144 378 
L 155.437882 378 
L 155.437882 356.4 
L 144 356.4 
z
" style="fill:#1f77b4;"/>
   </g>
   <g id="patch_4">
    <path clip-path="url(#pa98950ad56)" d="M 144 334.8 
L 169.782493 334.8 
L 169.782493 313.2 
L 144 313.2 
z
" style="fill:#1f77b4;"/>
   </g>
   <g id="patch_5">
    <path clip-path="url(#pa98950ad56)" d="M 155.437882 378 
L 173.91446 378 
L 173.91446 356.4 
L 155.437882 356.4 
z
" style="fill:#aec7e8;"/>
   </g>
   <g id="patch_6">
    <path clip-path="url(#pa98950ad56)" d="M 169.782493 334.8 
L 188.116711 334.8 
L 188.116711 313.2 
L 169.782493 313.2 
z
" style="fill:#aec7e8;"/>
   </g>
   <g id="patch_7">
    <path clip-path="url(#pa98950ad56)" d="M 173.91446 378 
L 203.828921 378 
L 203.828921 356.4 
L 173.91446 356.4 
z
" style="fill:#ff7f0e;"/>
   </g>
   <g id="patch_8">
    <path clip-path="url(#pa98950ad56)" d="M 188.116711 334.8 
L 208.169761 334.8 
L 208.169761 313.2 
L 188.116711 313.2 
z
" style="fill:#ff7f0e;"/>
   </g>
   <g id="patch_9">
    <path clip-path="url(#pa98950ad56)" d="M 203.828921 378 
L 219.665988 378 
L 219.665988 356.4 
L 203.828921 356.4 
z
" style="fill:#ffbb78;"/>
   </g>
   <g id="patch_10">
    <path clip-path="url(#pa98950ad56)" d="M 208.169761 334.8 
L 226.503979 334.8 
L 226.503979 313.2 
L 208.169761 313.2 
z
" style="fill:#ffbb78;"/>
   </g>
   <g id="patch_11">
    <path clip-path="url(#pa98950ad56)" d="M 219.665988 378 
L 235.503055 378 
L 235.503055 356.4 
L 219.665988 356.4 
z
" style="fill:#2ca02c;"/>
   </g>
   <g id="patch_12">
    <path clip-path="url(#pa98950ad56)" d="M 226.503979 334.8 
L 236.244032 334.8 
L 236.244032 313.2 
L 226.503979 313.2 
z
" style="fill:#2ca02c;"/>
   </g>
   <g id="patch_13">
    <path clip-path="url(#pa98950ad56)" d="M 235.503055 378 
L 307.649695 378 
L 307.649695 356.4 
L 235.503055 356.4 
z
" style="fill:#98df8a;"/>
   </g>
   <g id="patch_14">
    <path clip-path="url(#pa98950ad56)" d="M 236.244032 334.8 
L 294.68435 334.8 
L 294.68435 313.2 
L 236.244032 313.2 
z
" style="fill:#98df8a;"/>
   </g>
   <g id="patch_15">
    <path clip-path="url(#pa98950ad56)" d="M 307.649695 378 
L 313.808554 378 
L 313.808554 356.4 
L 307.649695 356.4 
z
" style="fill:#d62728;"/>
   </g>
   <g id="patch_16">
    <path clip-path="url(#pa98950ad56)" d="M 294.68435 334.8 
L 306.71618 334.8 
L 306.71618 313.2 
L 294.68435 313.2 
z
" style="fill:#d62728;"/>
   </g>
   <g id="patch_17">
    <path clip-path="url(#pa98950ad56)" d="M 313.808554 378 
L 340.203666 378 
L 340.203666 356.4 
L 313.808554 356.4 
z
" style="fill:#ff9896;"/>
   </g>
   <g id="patch_18">
    <path clip-path="url(#pa98950ad56)" d="M 306.71618 334.8 
L 334.217507 334.8 
L 334.217507 313.2 
L 306.71618 313.2 
z
" style="fill:#ff9896;"/>
   </g>
   <g id="patch_19">
    <path clip-path="url(#pa98950ad56)" d="M 340.203666 378 
L 348.1222 378 
L 348.1222 356.4 
L 340.203666 356.4 
z
" style="fill:#9467bd;"/>
   </g>
   <g id="patch_20">
    <path clip-path="url(#pa98950ad56)" d="M 334.217507 334.8 
L 344.530504 334.8 
L 344.530504 313.2 
L 334.217507 313.2 
z
" style="fill:#9467bd;"/>
   </g>
   <g id="patch_21">
    <path clip-path="url(#pa98950ad56)" d="M 348.1222 378 
L 378.916497 378 
L 378.916497 356.4 
L 348.1222 356.4 
z
" style="fill:#c5b0d5;"/>
   </g>
   <g id="patch_22">
    <path clip-path="url(#pa98950ad56)" d="M 344.530504 334.8 
L 376.04244 334.8 
L 376.04244 313.2 
L 344.530504 313.2 
z
" style="fill:#c5b0d5;"/>
   </g>
   <g id="patch_23">
    <path clip-path="url(#pa98950ad56)" d="M 378.916497 378 
L 401.792261 378 
L 401.792261 356.4 
L 378.916497 356.4 
z
" style="fill:#8c564b;"/>
   </g>
   <g id="patch_24">
    <path clip-path="url(#pa98950ad56)" d="M 376.04244 334.8 
L 394.376658 334.8 
L 394.376658 313.2 
L 376.04244 313.2 
z
" style="fill:#8c564b;"/>
   </g>
   <g id="patch_25">
    <path clip-path="url(#pa98950ad56)" d="M 401.792261 378 
L 416.749491 378 
L 416.749491 356.4 
L 401.792261 356.4 
z
" style="fill:#c49c94;"/>
   </g>
   <g id="patch_26">
    <path clip-path="url(#pa98950ad56)" d="M 394.376658 334.8 
L 407.554377 334.8 
L 407.554377 313.2 
L 394.376658 313.2 
z
" style="fill:#c49c94;"/>
   </g>
   <g id="patch_27">
    <path clip-path="url(#pa98950ad56)" d="M 416.749491 378 
L 427.307536 378 
L 427.307536 356.4 
L 416.749491 356.4 
z
" style="fill:#e377c2;"/>
   </g>
   <g id="patch_28">
    <path clip-path="url(#pa98950ad56)" d="M 407.554377 334.8 
L 419.013263 334.8 
L 419.013263 313.2 
L 407.554377 313.2 
z
" style="fill:#e377c2;"/>
   </g>
   <g id="patch_29">
    <path clip-path="url(#pa98950ad56)" d="M 427.307536 378 
L 438.745418 378 
L 438.745418 356.4 
L 427.307536 356.4 
z
" style="fill:#f7b6d2;"/>
   </g>
   <g id="patch_30">
    <path clip-path="url(#pa98950ad56)" d="M 419.013263 334.8 
L 430.472149 334.8 
L 430.472149 313.2 
L 419.013263 313.2 
z
" style="fill:#f7b6d2;"/>
   </g>
   <g id="patch_31">
    <path clip-path="url(#pa98950ad56)" d="M 438.745418 378 
L 451.942974 378 
L 451.942974 356.4 
L 438.745418 356.4 
z
" style="fill:#7f7f7f;"/>
   </g>
   <g id="patch_32">
    <path clip-path="url(#pa98950ad56)" d="M 430.472149 334.8 
L 443.649867 334.8 
L 443.649867 313.2 
L 430.472149 313.2 
z
" style="fill:#7f7f7f;"/>
   </g>
   <g id="patch_33">
    <path clip-path="url(#pa98950ad56)" d="M 451.942974 378 
L 460.741344 378 
L 460.741344 356.4 
L 451.942974 356.4 
z
" style="fill:#c7c7c7;"/>
   </g>
   <g id="patch_34">
    <path clip-path="url(#pa98950ad56)" d="M 443.649867 334.8 
L 452.816976 334.8 
L 452.816976 313.2 
L 443.649867 313.2 
z
" style="fill:#c7c7c7;"/>
   </g>
   <g id="patch_35">
    <path clip-path="url(#pa98950ad56)" d="M 460.741344 378 
L 474.818737 378 
L 474.818737 356.4 
L 460.741344 356.4 
z
" style="fill:#bcbd22;"/>
   </g>
   <g id="patch_36">
    <path clip-path="url(#pa98950ad56)" d="M 452.816976 334.8 
L 471.151194 334.8 
L 471.151194 313.2 
L 452.816976 313.2 
z
" style="fill:#bcbd22;"/>
   </g>
   <g id="patch_37">
    <path clip-path="url(#pa98950ad56)" d="M 474.818737 378 
L 481.857434 378 
L 481.857434 356.4 
L 474.818737 356.4 
z
" style="fill:#dbdb8d;"/>
   </g>
   <g id="patch_38">
    <path clip-path="url(#pa98950ad56)" d="M 471.151194 334.8 
L 481.464191 334.8 
L 481.464191 313.2 
L 471.151194 313.2 
z
" style="fill:#dbdb8d;"/>
   </g>
   <g id="patch_39">
    <path clip-path="url(#pa98950ad56)" d="M 481.857434 378 
L 495.05499 378 
L 495.05499 356.4 
L 481.857434 356.4 
z
" style="fill:#17becf;"/>
   </g>
   <g id="patch_40">
    <path clip-path="url(#pa98950ad56)" d="M 481.464191 334.8 
L 492.350133 334.8 
L 492.350133 313.2 
L 481.464191 313.2 
z
" style="fill:#17becf;"/>
   </g>
   <g id="patch_41">
    <path clip-path="url(#pa98950ad56)" d="M 495.05499 378 
L 507.372709 378 
L 507.372709 356.4 
L 495.05499 356.4 
z
" style="fill:#9edae5;"/>
   </g>
   <g id="patch_42">
    <path clip-path="url(#pa98950ad56)" d="M 492.350133 334.8 
L 515.267905 334.8 
L 515.267905 313.2 
L 492.350133 313.2 
z
" style="fill:#9edae5;"/>
   </g>
   <g id="patch_43">
    <path clip-path="url(#pa98950ad56)" d="M 507.372709 378 
L 576 378 
L 576 356.4 
L 507.372709 356.4 
z
" style="fill:#9edae5;"/>
   </g>
   <g id="patch_44">
    <path clip-path="url(#pa98950ad56)" d="M 515.267905 334.8 
L 576 334.8 
L 576 313.2 
L 515.267905 313.2 
z
" style="fill:#9edae5;"/>
   </g>
   <g id="matplotlib.axis_1">
    <g id="xtick_1">
     <g id="line2d_1">
      <defs>
       <path d="M 0 0 
L 0 6 
" id="mc93137b2d0" style="stroke:#000000;stroke-width:2.5;"/>
      </defs>
      <g>
       <use style="stroke:#000000;stroke-width:2.5;" x="144" xlink:href="#mc93137b2d0" y="393.8"/>
      </g>
     </g>
     <g id="text_1">
      <!-- 0.0 -->
      <g transform="translate(128.096875 417.496875)scale(0.2 -0.2)">
       <defs>
        <path d="M 2034 4250 
Q 1547 4250 1301 3770 
Q 1056 3291 1056 2328 
Q 1056 1369 1301 889 
Q 1547 409 2034 409 
Q 2525 409 2770 889 
Q 3016 1369 3016 2328 
Q 3016 3291 2770 3770 
Q 2525 4250 2034 4250 
z
M 2034 4750 
Q 2819 4750 3233 4129 
Q 3647 3509 3647 2328 
Q 3647 1150 3233 529 
Q 2819 -91 2034 -91 
Q 1250 -91 836 529 
Q 422 1150 422 2328 
Q 422 3509 836 4129 
Q 1250 4750 2034 4750 
z
" id="DejaVuSans-30" transform="scale(0.015625)"/>
        <path d="M 684 794 
L 1344 794 
L 1344 0 
L 684 0 
L 684 794 
z
" id="DejaVuSans-2e" transform="scale(0.015625)"/>
       </defs>
       <use xlink:href="#DejaVuSans-30"/>
       <use x="63.623047" xlink:href="#DejaVuSans-2e"/>
       <use x="95.410156" xlink:href="#DejaVuSans-30"/>
      </g>
     </g>
    </g>
    <g id="xtick_2">
     <g id="line2d_2">
      <g>
       <use style="stroke:#000000;stroke-width:2.5;" x="360" xlink:href="#mc93137b2d0" y="393.8"/>
      </g>
     </g>
     <g id="text_2">
      <!-- 0.5 -->
      <g transform="translate(344.096875 417.496875)scale(0.2 -0.2)">
       <defs>
        <path d="M 691 4666 
L 3169 4666 
L 3169 4134 
L 1269 4134 
L 1269 2991 
Q 1406 3038 1543 3061 
Q 1681 3084 1819 3084 
Q 2600 3084 3056 2656 
Q 3513 2228 3513 1497 
Q 3513 744 3044 326 
Q 2575 -91 1722 -91 
Q 1428 -91 1123 -41 
Q 819 9 494 109 
L 494 744 
Q 775 591 1075 516 
Q 1375 441 1709 441 
Q 2250 441 2565 725 
Q 2881 1009 2881 1497 
Q 2881 1984 2565 2268 
Q 2250 2553 1709 2553 
Q 1456 2553 1204 2497 
Q 953 2441 691 2322 
L 691 4666 
z
" id="DejaVuSans-35" transform="scale(0.015625)"/>
       </defs>
       <use xlink:href="#DejaVuSans-30"/>
       <use x="63.623047" xlink:href="#DejaVuSans-2e"/>
       <use x="95.410156" xlink:href="#DejaVuSans-35"/>
      </g>
     </g>
    </g>
    <g id="xtick_3">
     <g id="line2d_3">
      <g>
       <use style="stroke:#000000;stroke-width:2.5;" x="576" xlink:href="#mc93137b2d0" y="393.8"/>
      </g>
     </g>
     <g id="text_3">
      <!-- 1.0 -->
      <g transform="translate(560.096875 417.496875)scale(0.2 -0.2)">
       <defs>
        <path d="M 794 531 
L 1825 531 
L 1825 4091 
L 703 3866 
L 703 4441 
L 1819 4666 
L 2450 4666 
L 2450 531 
L 3481 531 
L 3481 0 
L 794 0 
L 794 531 
z
" id="DejaVuSans-31" transform="scale(0.015625)"/>
       </defs>
       <use xlink:href="#DejaVuSans-31"/>
       <use x="63.623047" xlink:href="#DejaVuSans-2e"/>
       <use x="95.410156" xlink:href="#DejaVuSans-30"/>
      </g>
     </g>
    </g>
   </g>
   <g id="matplotlib.axis_2">
    <g id="ytick_1">
     <g id="line2d_4"/>
     <g id="text_4">
      <!-- private -->
      <g transform="translate(70.784375 365.120312)scale(0.2 -0.2)">
       <defs>
        <path d="M 1159 525 
L 1159 -1331 
L 581 -1331 
L 581 3500 
L 1159 3500 
L 1159 2969 
Q 1341 3281 1617 3432 
Q 1894 3584 2278 3584 
Q 2916 3584 3314 3078 
Q 3713 2572 3713 1747 
Q 3713 922 3314 415 
Q 2916 -91 2278 -91 
Q 1894 -91 1617 61 
Q 1341 213 1159 525 
z
M 3116 1747 
Q 3116 2381 2855 2742 
Q 2594 3103 2138 3103 
Q 1681 3103 1420 2742 
Q 1159 2381 1159 1747 
Q 1159 1113 1420 752 
Q 1681 391 2138 391 
Q 2594 391 2855 752 
Q 3116 1113 3116 1747 
z
" id="DejaVuSans-70" transform="scale(0.015625)"/>
        <path d="M 2631 2963 
Q 2534 3019 2420 3045 
Q 2306 3072 2169 3072 
Q 1681 3072 1420 2755 
Q 1159 2438 1159 1844 
L 1159 0 
L 581 0 
L 581 3500 
L 1159 3500 
L 1159 2956 
Q 1341 3275 1631 3429 
Q 1922 3584 2338 3584 
Q 2397 3584 2469 3576 
Q 2541 3569 2628 3553 
L 2631 2963 
z
" id="DejaVuSans-72" transform="scale(0.015625)"/>
        <path d="M 603 3500 
L 1178 3500 
L 1178 0 
L 603 0 
L 603 3500 
z
M 603 4863 
L 1178 4863 
L 1178 4134 
L 603 4134 
L 603 4863 
z
" id="DejaVuSans-69" transform="scale(0.015625)"/>
        <path d="M 191 3500 
L 800 3500 
L 1894 563 
L 2988 3500 
L 3597 3500 
L 2284 0 
L 1503 0 
L 191 3500 
z
" id="DejaVuSans-76" transform="scale(0.015625)"/>
        <path d="M 2194 1759 
Q 1497 1759 1228 1600 
Q 959 1441 959 1056 
Q 959 750 1161 570 
Q 1363 391 1709 391 
Q 2188 391 2477 730 
Q 2766 1069 2766 1631 
L 2766 1759 
L 2194 1759 
z
M 3341 1997 
L 3341 0 
L 2766 0 
L 2766 531 
Q 2569 213 2275 61 
Q 1981 -91 1556 -91 
Q 1019 -91 701 211 
Q 384 513 384 1019 
Q 384 1609 779 1909 
Q 1175 2209 1959 2209 
L 2766 2209 
L 2766 2266 
Q 2766 2663 2505 2880 
Q 2244 3097 1772 3097 
Q 1472 3097 1187 3025 
Q 903 2953 641 2809 
L 641 3341 
Q 956 3463 1253 3523 
Q 1550 3584 1831 3584 
Q 2591 3584 2966 3190 
Q 3341 2797 3341 1997 
z
" id="DejaVuSans-61" transform="scale(0.015625)"/>
        <path d="M 1172 4494 
L 1172 3500 
L 2356 3500 
L 2356 3053 
L 1172 3053 
L 1172 1153 
Q 1172 725 1289 603 
Q 1406 481 1766 481 
L 2356 481 
L 2356 0 
L 1766 0 
Q 1100 0 847 248 
Q 594 497 594 1153 
L 594 3053 
L 172 3053 
L 172 3500 
L 594 3500 
L 594 4494 
L 1172 4494 
z
" id="DejaVuSans-74" transform="scale(0.015625)"/>
        <path d="M 3597 1894 
L 3597 1613 
L 953 1613 
Q 991 1019 1311 708 
Q 1631 397 2203 397 
Q 2534 397 2845 478 
Q 3156 559 3463 722 
L 3463 178 
Q 3153 47 2828 -22 
Q 2503 -91 2169 -91 
Q 1331 -91 842 396 
Q 353 884 353 1716 
Q 353 2575 817 3079 
Q 1281 3584 2069 3584 
Q 2775 3584 3186 3129 
Q 3597 2675 3597 1894 
z
M 3022 2063 
Q 3016 2534 2758 2815 
Q 2500 3097 2075 3097 
Q 1594 3097 1305 2825 
Q 1016 2553 972 2059 
L 3022 2063 
z
" id="DejaVuSans-65" transform="scale(0.015625)"/>
       </defs>
       <use xlink:href="#DejaVuSans-70"/>
       <use x="63.476562" xlink:href="#DejaVuSans-72"/>
       <use x="104.589844" xlink:href="#DejaVuSans-69"/>
       <use x="132.373047" xlink:href="#DejaVuSans-76"/>
       <use x="191.552734" xlink:href="#DejaVuSans-61"/>
       <use x="252.832031" xlink:href="#DejaVuSans-74"/>
       <use x="292.041016" xlink:href="#DejaVuSans-65"/>
      </g>
      <!-- set -->
      <g transform="translate(110.934375 387.515938)scale(0.2 -0.2)">
       <defs>
        <path d="M 2834 3397 
L 2834 2853 
Q 2591 2978 2328 3040 
Q 2066 3103 1784 3103 
Q 1356 3103 1142 2972 
Q 928 2841 928 2578 
Q 928 2378 1081 2264 
Q 1234 2150 1697 2047 
L 1894 2003 
Q 2506 1872 2764 1633 
Q 3022 1394 3022 966 
Q 3022 478 2636 193 
Q 2250 -91 1575 -91 
Q 1294 -91 989 -36 
Q 684 19 347 128 
L 347 722 
Q 666 556 975 473 
Q 1284 391 1588 391 
Q 1994 391 2212 530 
Q 2431 669 2431 922 
Q 2431 1156 2273 1281 
Q 2116 1406 1581 1522 
L 1381 1569 
Q 847 1681 609 1914 
Q 372 2147 372 2553 
Q 372 3047 722 3315 
Q 1072 3584 1716 3584 
Q 2034 3584 2315 3537 
Q 2597 3491 2834 3397 
z
" id="DejaVuSans-73" transform="scale(0.015625)"/>
       </defs>
       <use xlink:href="#DejaVuSans-73"/>
       <use x="52.099609" xlink:href="#DejaVuSans-65"/>
       <use x="113.623047" xlink:href="#DejaVuSans-74"/>
      </g>
     </g>
    </g>
    <g id="ytick_2">
     <g id="line2d_5"/>
     <g id="text_5">
      <!-- public -->
      <g transform="translate(81.321875 321.920312)scale(0.2 -0.2)">
       <defs>
        <path d="M 544 1381 
L 544 3500 
L 1119 3500 
L 1119 1403 
Q 1119 906 1312 657 
Q 1506 409 1894 409 
Q 2359 409 2629 706 
Q 2900 1003 2900 1516 
L 2900 3500 
L 3475 3500 
L 3475 0 
L 2900 0 
L 2900 538 
Q 2691 219 2414 64 
Q 2138 -91 1772 -91 
Q 1169 -91 856 284 
Q 544 659 544 1381 
z
M 1991 3584 
L 1991 3584 
z
" id="DejaVuSans-75" transform="scale(0.015625)"/>
        <path d="M 3116 1747 
Q 3116 2381 2855 2742 
Q 2594 3103 2138 3103 
Q 1681 3103 1420 2742 
Q 1159 2381 1159 1747 
Q 1159 1113 1420 752 
Q 1681 391 2138 391 
Q 2594 391 2855 752 
Q 3116 1113 3116 1747 
z
M 1159 2969 
Q 1341 3281 1617 3432 
Q 1894 3584 2278 3584 
Q 2916 3584 3314 3078 
Q 3713 2572 3713 1747 
Q 3713 922 3314 415 
Q 2916 -91 2278 -91 
Q 1894 -91 1617 61 
Q 1341 213 1159 525 
L 1159 0 
L 581 0 
L 581 4863 
L 1159 4863 
L 1159 2969 
z
" id="DejaVuSans-62" transform="scale(0.015625)"/>
        <path d="M 603 4863 
L 1178 4863 
L 1178 0 
L 603 0 
L 603 4863 
z
" id="DejaVuSans-6c" transform="scale(0.015625)"/>
        <path d="M 3122 3366 
L 3122 2828 
Q 2878 2963 2633 3030 
Q 2388 3097 2138 3097 
Q 1578 3097 1268 2742 
Q 959 2388 959 1747 
Q 959 1106 1268 751 
Q 1578 397 2138 397 
Q 2388 397 2633 464 
Q 2878 531 3122 666 
L 3122 134 
Q 2881 22 2623 -34 
Q 2366 -91 2075 -91 
Q 1284 -91 818 406 
Q 353 903 353 1747 
Q 353 2603 823 3093 
Q 1294 3584 2113 3584 
Q 2378 3584 2631 3529 
Q 2884 3475 3122 3366 
z
" id="DejaVuSans-63" transform="scale(0.015625)"/>
       </defs>
       <use xlink:href="#DejaVuSans-70"/>
       <use x="63.476562" xlink:href="#DejaVuSans-75"/>
       <use x="126.855469" xlink:href="#DejaVuSans-62"/>
       <use x="190.332031" xlink:href="#DejaVuSans-6c"/>
       <use x="218.115234" xlink:href="#DejaVuSans-69"/>
       <use x="245.898438" xlink:href="#DejaVuSans-63"/>
      </g>
      <!-- set -->
      <g transform="translate(110.934375 344.315937)scale(0.2 -0.2)">
       <use xlink:href="#DejaVuSans-73"/>
       <use x="52.099609" xlink:href="#DejaVuSans-65"/>
       <use x="113.623047" xlink:href="#DejaVuSans-74"/>
      </g>
     </g>
    </g>
   </g>
   <g id="patch_45">
    <path d="M 144 393.8 
L 576 393.8 
" style="fill:none;stroke:#000000;stroke-linecap:square;stroke-linejoin:miter;stroke-width:2.5;"/>
   </g>
   <g id="text_6">
    <!-- (d) -->
    <g transform="translate(576 306.815)scale(0.16 -0.16)">
     <defs>
      <path d="M 2413 -844 
L 1484 -844 
Q 1006 -72 778 623 
Q 550 1319 550 2003 
Q 550 2688 779 3389 
Q 1009 4091 1484 4856 
L 2413 4856 
Q 2013 4116 1813 3408 
Q 1613 2700 1613 2009 
Q 1613 1319 1811 609 
Q 2009 -100 2413 -844 
z
" id="DejaVuSans-Bold-28" transform="scale(0.015625)"/>
      <path d="M 2919 2988 
L 2919 4863 
L 4044 4863 
L 4044 0 
L 2919 0 
L 2919 506 
Q 2688 197 2409 53 
Q 2131 -91 1766 -91 
Q 1119 -91 703 423 
Q 288 938 288 1747 
Q 288 2556 703 3070 
Q 1119 3584 1766 3584 
Q 2128 3584 2408 3439 
Q 2688 3294 2919 2988 
z
M 2181 722 
Q 2541 722 2730 984 
Q 2919 1247 2919 1747 
Q 2919 2247 2730 2509 
Q 2541 2772 2181 2772 
Q 1825 2772 1636 2509 
Q 1447 2247 1447 1747 
Q 1447 1247 1636 984 
Q 1825 722 2181 722 
z
" id="DejaVuSans-Bold-64" transform="scale(0.015625)"/>
      <path d="M 513 -844 
Q 913 -100 1113 609 
Q 1313 1319 1313 2009 
Q 1313 2700 1113 3408 
Q 913 4116 513 4856 
L 1441 4856 
Q 1916 4091 2145 3389 
Q 2375 2688 2375 2003 
Q 2375 1319 2147 623 
Q 1919 -72 1441 -844 
L 513 -844 
z
" id="DejaVuSans-Bold-29" transform="scale(0.015625)"/>
     </defs>
     <use xlink:href="#DejaVuSans-Bold-28"/>
     <use x="45.703125" xlink:href="#DejaVuSans-Bold-64"/>
     <use x="117.285156" xlink:href="#DejaVuSans-Bold-29"/>
    </g>
   </g>
   <g id="text_7">
    <!-- Site distribution for ABIDE I subset -->
    <g transform="translate(152.85 296.4)scale(0.24 -0.24)">
     <defs>
      <path d="M 3425 4513 
L 3425 3897 
Q 3066 4069 2747 4153 
Q 2428 4238 2131 4238 
Q 1616 4238 1336 4038 
Q 1056 3838 1056 3469 
Q 1056 3159 1242 3001 
Q 1428 2844 1947 2747 
L 2328 2669 
Q 3034 2534 3370 2195 
Q 3706 1856 3706 1288 
Q 3706 609 3251 259 
Q 2797 -91 1919 -91 
Q 1588 -91 1214 -16 
Q 841 59 441 206 
L 441 856 
Q 825 641 1194 531 
Q 1563 422 1919 422 
Q 2459 422 2753 634 
Q 3047 847 3047 1241 
Q 3047 1584 2836 1778 
Q 2625 1972 2144 2069 
L 1759 2144 
Q 1053 2284 737 2584 
Q 422 2884 422 3419 
Q 422 4038 858 4394 
Q 1294 4750 2059 4750 
Q 2388 4750 2728 4690 
Q 3069 4631 3425 4513 
z
" id="DejaVuSans-53" transform="scale(0.015625)"/>
      <path id="DejaVuSans-20" transform="scale(0.015625)"/>
      <path d="M 2906 2969 
L 2906 4863 
L 3481 4863 
L 3481 0 
L 2906 0 
L 2906 525 
Q 2725 213 2448 61 
Q 2172 -91 1784 -91 
Q 1150 -91 751 415 
Q 353 922 353 1747 
Q 353 2572 751 3078 
Q 1150 3584 1784 3584 
Q 2172 3584 2448 3432 
Q 2725 3281 2906 2969 
z
M 947 1747 
Q 947 1113 1208 752 
Q 1469 391 1925 391 
Q 2381 391 2643 752 
Q 2906 1113 2906 1747 
Q 2906 2381 2643 2742 
Q 2381 3103 1925 3103 
Q 1469 3103 1208 2742 
Q 947 2381 947 1747 
z
" id="DejaVuSans-64" transform="scale(0.015625)"/>
      <path d="M 1959 3097 
Q 1497 3097 1228 2736 
Q 959 2375 959 1747 
Q 959 1119 1226 758 
Q 1494 397 1959 397 
Q 2419 397 2687 759 
Q 2956 1122 2956 1747 
Q 2956 2369 2687 2733 
Q 2419 3097 1959 3097 
z
M 1959 3584 
Q 2709 3584 3137 3096 
Q 3566 2609 3566 1747 
Q 3566 888 3137 398 
Q 2709 -91 1959 -91 
Q 1206 -91 779 398 
Q 353 888 353 1747 
Q 353 2609 779 3096 
Q 1206 3584 1959 3584 
z
" id="DejaVuSans-6f" transform="scale(0.015625)"/>
      <path d="M 3513 2113 
L 3513 0 
L 2938 0 
L 2938 2094 
Q 2938 2591 2744 2837 
Q 2550 3084 2163 3084 
Q 1697 3084 1428 2787 
Q 1159 2491 1159 1978 
L 1159 0 
L 581 0 
L 581 3500 
L 1159 3500 
L 1159 2956 
Q 1366 3272 1645 3428 
Q 1925 3584 2291 3584 
Q 2894 3584 3203 3211 
Q 3513 2838 3513 2113 
z
" id="DejaVuSans-6e" transform="scale(0.015625)"/>
      <path d="M 2375 4863 
L 2375 4384 
L 1825 4384 
Q 1516 4384 1395 4259 
Q 1275 4134 1275 3809 
L 1275 3500 
L 2222 3500 
L 2222 3053 
L 1275 3053 
L 1275 0 
L 697 0 
L 697 3053 
L 147 3053 
L 147 3500 
L 697 3500 
L 697 3744 
Q 697 4328 969 4595 
Q 1241 4863 1831 4863 
L 2375 4863 
z
" id="DejaVuSans-66" transform="scale(0.015625)"/>
      <path d="M 2188 4044 
L 1331 1722 
L 3047 1722 
L 2188 4044 
z
M 1831 4666 
L 2547 4666 
L 4325 0 
L 3669 0 
L 3244 1197 
L 1141 1197 
L 716 0 
L 50 0 
L 1831 4666 
z
" id="DejaVuSans-41" transform="scale(0.015625)"/>
      <path d="M 1259 2228 
L 1259 519 
L 2272 519 
Q 2781 519 3026 730 
Q 3272 941 3272 1375 
Q 3272 1813 3026 2020 
Q 2781 2228 2272 2228 
L 1259 2228 
z
M 1259 4147 
L 1259 2741 
L 2194 2741 
Q 2656 2741 2882 2914 
Q 3109 3088 3109 3444 
Q 3109 3797 2882 3972 
Q 2656 4147 2194 4147 
L 1259 4147 
z
M 628 4666 
L 2241 4666 
Q 2963 4666 3353 4366 
Q 3744 4066 3744 3513 
Q 3744 3084 3544 2831 
Q 3344 2578 2956 2516 
Q 3422 2416 3680 2098 
Q 3938 1781 3938 1306 
Q 3938 681 3513 340 
Q 3088 0 2303 0 
L 628 0 
L 628 4666 
z
" id="DejaVuSans-42" transform="scale(0.015625)"/>
      <path d="M 628 4666 
L 1259 4666 
L 1259 0 
L 628 0 
L 628 4666 
z
" id="DejaVuSans-49" transform="scale(0.015625)"/>
      <path d="M 1259 4147 
L 1259 519 
L 2022 519 
Q 2988 519 3436 956 
Q 3884 1394 3884 2338 
Q 3884 3275 3436 3711 
Q 2988 4147 2022 4147 
L 1259 4147 
z
M 628 4666 
L 1925 4666 
Q 3281 4666 3915 4102 
Q 4550 3538 4550 2338 
Q 4550 1131 3912 565 
Q 3275 0 1925 0 
L 628 0 
L 628 4666 
z
" id="DejaVuSans-44" transform="scale(0.015625)"/>
      <path d="M 628 4666 
L 3578 4666 
L 3578 4134 
L 1259 4134 
L 1259 2753 
L 3481 2753 
L 3481 2222 
L 1259 2222 
L 1259 531 
L 3634 531 
L 3634 0 
L 628 0 
L 628 4666 
z
" id="DejaVuSans-45" transform="scale(0.015625)"/>
     </defs>
     <use xlink:href="#DejaVuSans-53"/>
     <use x="63.476562" xlink:href="#DejaVuSans-69"/>
     <use x="91.259766" xlink:href="#DejaVuSans-74"/>
     <use x="130.46875" xlink:href="#DejaVuSans-65"/>
     <use x="191.992188" xlink:href="#DejaVuSans-20"/>
     <use x="223.779297" xlink:href="#DejaVuSans-64"/>
     <use x="287.255859" xlink:href="#DejaVuSans-69"/>
     <use x="315.039062" xlink:href="#DejaVuSans-73"/>
     <use x="367.138672" xlink:href="#DejaVuSans-74"/>
     <use x="406.347656" xlink:href="#DejaVuSans-72"/>
     <use x="447.460938" xlink:href="#DejaVuSans-69"/>
     <use x="475.244141" xlink:href="#DejaVuSans-62"/>
     <use x="538.720703" xlink:href="#DejaVuSans-75"/>
     <use x="602.099609" xlink:href="#DejaVuSans-74"/>
     <use x="641.308594" xlink:href="#DejaVuSans-69"/>
     <use x="669.091797" xlink:href="#DejaVuSans-6f"/>
     <use x="730.273438" xlink:href="#DejaVuSans-6e"/>
     <use x="793.652344" xlink:href="#DejaVuSans-20"/>
     <use x="825.439453" xlink:href="#DejaVuSans-66"/>
     <use x="860.644531" xlink:href="#DejaVuSans-6f"/>
     <use x="921.826172" xlink:href="#DejaVuSans-72"/>
     <use x="962.939453" xlink:href="#DejaVuSans-20"/>
     <use x="994.726562" xlink:href="#DejaVuSans-41"/>
     <use x="1063.134766" xlink:href="#DejaVuSans-42"/>
     <use x="1131.738281" xlink:href="#DejaVuSans-49"/>
     <use x="1161.230469" xlink:href="#DejaVuSans-44"/>
     <use x="1238.232422" xlink:href="#DejaVuSans-45"/>
     <use x="1301.416016" xlink:href="#DejaVuSans-20"/>
     <use x="1333.203125" xlink:href="#DejaVuSans-49"/>
     <use x="1362.695312" xlink:href="#DejaVuSans-20"/>
     <use x="1394.482422" xlink:href="#DejaVuSans-73"/>
     <use x="1446.582031" xlink:href="#DejaVuSans-75"/>
     <use x="1509.960938" xlink:href="#DejaVuSans-62"/>
     <use x="1573.4375" xlink:href="#DejaVuSans-73"/>
     <use x="1625.537109" xlink:href="#DejaVuSans-65"/>
     <use x="1687.060547" xlink:href="#DejaVuSans-74"/>
    </g>
   </g>
  </g>
  <g id="axes_2">
   <g id="patch_46">
    <path d="M 864 388.8 
L 1296 388.8 
L 1296 302.4 
L 864 302.4 
z
" style="fill:#ffffff;"/>
   </g>
   <g id="patch_47">
    <path clip-path="url(#p4ec3f4a1b7)" d="M 864 378 
L 888.638783 378 
L 888.638783 356.4 
L 864 356.4 
z
" style="fill:#1f77b4;"/>
   </g>
   <g id="patch_48">
    <path clip-path="url(#p4ec3f4a1b7)" d="M 864 334.8 
L 876 334.8 
L 876 313.2 
L 864 313.2 
z
" style="fill:#1f77b4;"/>
   </g>
   <g id="patch_49">
    <path clip-path="url(#p4ec3f4a1b7)" d="M 888.638783 378 
L 908.34981 378 
L 908.34981 356.4 
L 888.638783 356.4 
z
" style="fill:#aec7e8;"/>
   </g>
   <g id="patch_50">
    <path clip-path="url(#p4ec3f4a1b7)" d="M 876 334.8 
L 902.181818 334.8 
L 902.181818 313.2 
L 876 313.2 
z
" style="fill:#aec7e8;"/>
   </g>
   <g id="patch_51">
    <path clip-path="url(#p4ec3f4a1b7)" d="M 908.34981 378 
L 939.558935 378 
L 939.558935 356.4 
L 908.34981 356.4 
z
" style="fill:#ffbb78;"/>
   </g>
   <g id="patch_52">
    <path clip-path="url(#p4ec3f4a1b7)" d="M 902.181818 334.8 
L 943.636364 334.8 
L 943.636364 313.2 
L 902.181818 313.2 
z
" style="fill:#ffbb78;"/>
   </g>
   <g id="patch_53">
    <path clip-path="url(#p4ec3f4a1b7)" d="M 939.558935 378 
L 955.984791 378 
L 955.984791 356.4 
L 939.558935 356.4 
z
" style="fill:#98df8a;"/>
   </g>
   <g id="patch_54">
    <path clip-path="url(#p4ec3f4a1b7)" d="M 943.636364 334.8 
L 964.363636 334.8 
L 964.363636 313.2 
L 943.636364 313.2 
z
" style="fill:#98df8a;"/>
   </g>
   <g id="patch_55">
    <path clip-path="url(#p4ec3f4a1b7)" d="M 955.984791 378 
L 977.338403 378 
L 977.338403 356.4 
L 955.984791 356.4 
z
" style="fill:#d62728;"/>
   </g>
   <g id="patch_56">
    <path clip-path="url(#p4ec3f4a1b7)" d="M 964.363636 334.8 
L 989.454545 334.8 
L 989.454545 313.2 
L 964.363636 313.2 
z
" style="fill:#d62728;"/>
   </g>
   <g id="patch_57">
    <path clip-path="url(#p4ec3f4a1b7)" d="M 977.338403 378 
L 1010.190114 378 
L 1010.190114 356.4 
L 977.338403 356.4 
z
" style="fill:#9467bd;"/>
   </g>
   <g id="patch_58">
    <path clip-path="url(#p4ec3f4a1b7)" d="M 989.454545 334.8 
L 1010.181818 334.8 
L 1010.181818 313.2 
L 989.454545 313.2 
z
" style="fill:#9467bd;"/>
   </g>
   <g id="patch_59">
    <path clip-path="url(#p4ec3f4a1b7)" d="M 1010.190114 378 
L 1038.114068 378 
L 1038.114068 356.4 
L 1010.190114 356.4 
z
" style="fill:#8c564b;"/>
   </g>
   <g id="patch_60">
    <path clip-path="url(#p4ec3f4a1b7)" d="M 1010.181818 334.8 
L 1045.090909 334.8 
L 1045.090909 313.2 
L 1010.181818 313.2 
z
" style="fill:#8c564b;"/>
   </g>
   <g id="patch_61">
    <path clip-path="url(#p4ec3f4a1b7)" d="M 1038.114068 378 
L 1095.604563 378 
L 1095.604563 356.4 
L 1038.114068 356.4 
z
" style="fill:#c49c94;"/>
   </g>
   <g id="patch_62">
    <path clip-path="url(#p4ec3f4a1b7)" d="M 1045.090909 334.8 
L 1086.545455 334.8 
L 1086.545455 313.2 
L 1045.090909 313.2 
z
" style="fill:#c49c94;"/>
   </g>
   <g id="patch_63">
    <path clip-path="url(#p4ec3f4a1b7)" d="M 1095.604563 378 
L 1113.673004 378 
L 1113.673004 356.4 
L 1095.604563 356.4 
z
" style="fill:#f7b6d2;"/>
   </g>
   <g id="patch_64">
    <path clip-path="url(#p4ec3f4a1b7)" d="M 1086.545455 334.8 
L 1102.909091 334.8 
L 1102.909091 313.2 
L 1086.545455 313.2 
z
" style="fill:#f7b6d2;"/>
   </g>
   <g id="patch_65">
    <path clip-path="url(#p4ec3f4a1b7)" d="M 1113.673004 378 
L 1177.73384 378 
L 1177.73384 356.4 
L 1113.673004 356.4 
z
" style="fill:#c7c7c7;"/>
   </g>
   <g id="patch_66">
    <path clip-path="url(#p4ec3f4a1b7)" d="M 1102.909091 334.8 
L 1167.272727 334.8 
L 1167.272727 313.2 
L 1102.909091 313.2 
z
" style="fill:#c7c7c7;"/>
   </g>
   <g id="patch_67">
    <path clip-path="url(#p4ec3f4a1b7)" d="M 1177.73384 378 
L 1187.589354 378 
L 1187.589354 356.4 
L 1177.73384 356.4 
z
" style="fill:#bcbd22;"/>
   </g>
   <g id="patch_68">
    <path clip-path="url(#p4ec3f4a1b7)" d="M 1167.272727 334.8 
L 1197.818182 334.8 
L 1197.818182 313.2 
L 1167.272727 313.2 
z
" style="fill:#bcbd22;"/>
   </g>
   <g id="patch_69">
    <path clip-path="url(#p4ec3f4a1b7)" d="M 1187.589354 378 
L 1250.007605 378 
L 1250.007605 356.4 
L 1187.589354 356.4 
z
" style="fill:#17becf;"/>
   </g>
   <g id="patch_70">
    <path clip-path="url(#p4ec3f4a1b7)" d="M 1197.818182 334.8 
L 1265.454545 334.8 
L 1265.454545 313.2 
L 1197.818182 313.2 
z
" style="fill:#17becf;"/>
   </g>
   <g id="patch_71">
    <path clip-path="url(#p4ec3f4a1b7)" d="M 1250.007605 378 
L 1296 378 
L 1296 356.4 
L 1250.007605 356.4 
z
" style="fill:#9edae5;"/>
   </g>
   <g id="patch_72">
    <path clip-path="url(#p4ec3f4a1b7)" d="M 1265.454545 334.8 
L 1296 334.8 
L 1296 313.2 
L 1265.454545 313.2 
z
" style="fill:#9edae5;"/>
   </g>
   <g id="matplotlib.axis_3">
    <g id="xtick_4">
     <g id="line2d_6">
      <g>
       <use style="stroke:#000000;stroke-width:2.5;" x="864" xlink:href="#mc93137b2d0" y="393.8"/>
      </g>
     </g>
     <g id="text_8">
      <!-- 0.0 -->
      <g transform="translate(848.096875 417.496875)scale(0.2 -0.2)">
       <use xlink:href="#DejaVuSans-30"/>
       <use x="63.623047" xlink:href="#DejaVuSans-2e"/>
       <use x="95.410156" xlink:href="#DejaVuSans-30"/>
      </g>
     </g>
    </g>
    <g id="xtick_5">
     <g id="line2d_7">
      <g>
       <use style="stroke:#000000;stroke-width:2.5;" x="1080" xlink:href="#mc93137b2d0" y="393.8"/>
      </g>
     </g>
     <g id="text_9">
      <!-- 0.5 -->
      <g transform="translate(1064.096875 417.496875)scale(0.2 -0.2)">
       <use xlink:href="#DejaVuSans-30"/>
       <use x="63.623047" xlink:href="#DejaVuSans-2e"/>
       <use x="95.410156" xlink:href="#DejaVuSans-35"/>
      </g>
     </g>
    </g>
    <g id="xtick_6">
     <g id="line2d_8">
      <g>
       <use style="stroke:#000000;stroke-width:2.5;" x="1296" xlink:href="#mc93137b2d0" y="393.8"/>
      </g>
     </g>
     <g id="text_10">
      <!-- 1.0 -->
      <g transform="translate(1280.096875 417.496875)scale(0.2 -0.2)">
       <use xlink:href="#DejaVuSans-31"/>
       <use x="63.623047" xlink:href="#DejaVuSans-2e"/>
       <use x="95.410156" xlink:href="#DejaVuSans-30"/>
      </g>
     </g>
    </g>
   </g>
   <g id="matplotlib.axis_4">
    <g id="ytick_3">
     <g id="line2d_9"/>
     <g id="text_11">
      <!-- private -->
      <g transform="translate(790.784375 365.120312)scale(0.2 -0.2)">
       <use xlink:href="#DejaVuSans-70"/>
       <use x="63.476562" xlink:href="#DejaVuSans-72"/>
       <use x="104.589844" xlink:href="#DejaVuSans-69"/>
       <use x="132.373047" xlink:href="#DejaVuSans-76"/>
       <use x="191.552734" xlink:href="#DejaVuSans-61"/>
       <use x="252.832031" xlink:href="#DejaVuSans-74"/>
       <use x="292.041016" xlink:href="#DejaVuSans-65"/>
      </g>
      <!-- set -->
      <g transform="translate(830.934375 387.515938)scale(0.2 -0.2)">
       <use xlink:href="#DejaVuSans-73"/>
       <use x="52.099609" xlink:href="#DejaVuSans-65"/>
       <use x="113.623047" xlink:href="#DejaVuSans-74"/>
      </g>
     </g>
    </g>
    <g id="ytick_4">
     <g id="line2d_10"/>
     <g id="text_12">
      <!-- public -->
      <g transform="translate(801.321875 321.920312)scale(0.2 -0.2)">
       <use xlink:href="#DejaVuSans-70"/>
       <use x="63.476562" xlink:href="#DejaVuSans-75"/>
       <use x="126.855469" xlink:href="#DejaVuSans-62"/>
       <use x="190.332031" xlink:href="#DejaVuSans-6c"/>
       <use x="218.115234" xlink:href="#DejaVuSans-69"/>
       <use x="245.898438" xlink:href="#DejaVuSans-63"/>
      </g>
      <!-- set -->
      <g transform="translate(830.934375 344.315937)scale(0.2 -0.2)">
       <use xlink:href="#DejaVuSans-73"/>
       <use x="52.099609" xlink:href="#DejaVuSans-65"/>
       <use x="113.623047" xlink:href="#DejaVuSans-74"/>
      </g>
     </g>
    </g>
   </g>
   <g id="patch_73">
    <path d="M 864 393.8 
L 1296 393.8 
" style="fill:none;stroke:#000000;stroke-linecap:square;stroke-linejoin:miter;stroke-width:2.5;"/>
   </g>
   <g id="text_13">
    <!-- (e) -->
    <g transform="translate(1296 306.815)scale(0.16 -0.16)">
     <defs>
      <path d="M 4031 1759 
L 4031 1441 
L 1416 1441 
Q 1456 1047 1700 850 
Q 1944 653 2381 653 
Q 2734 653 3104 758 
Q 3475 863 3866 1075 
L 3866 213 
Q 3469 63 3072 -14 
Q 2675 -91 2278 -91 
Q 1328 -91 801 392 
Q 275 875 275 1747 
Q 275 2603 792 3093 
Q 1309 3584 2216 3584 
Q 3041 3584 3536 3087 
Q 4031 2591 4031 1759 
z
M 2881 2131 
Q 2881 2450 2695 2645 
Q 2509 2841 2209 2841 
Q 1884 2841 1681 2658 
Q 1478 2475 1428 2131 
L 2881 2131 
z
" id="DejaVuSans-Bold-65" transform="scale(0.015625)"/>
     </defs>
     <use xlink:href="#DejaVuSans-Bold-28"/>
     <use x="45.703125" xlink:href="#DejaVuSans-Bold-65"/>
     <use x="113.525391" xlink:href="#DejaVuSans-Bold-29"/>
    </g>
   </g>
   <g id="text_14">
    <!-- Site distribution for ABIDE II subset -->
    <g transform="translate(869.31 296.4)scale(0.24 -0.24)">
     <use xlink:href="#DejaVuSans-53"/>
     <use x="63.476562" xlink:href="#DejaVuSans-69"/>
     <use x="91.259766" xlink:href="#DejaVuSans-74"/>
     <use x="130.46875" xlink:href="#DejaVuSans-65"/>
     <use x="191.992188" xlink:href="#DejaVuSans-20"/>
     <use x="223.779297" xlink:href="#DejaVuSans-64"/>
     <use x="287.255859" xlink:href="#DejaVuSans-69"/>
     <use x="315.039062" xlink:href="#DejaVuSans-73"/>
     <use x="367.138672" xlink:href="#DejaVuSans-74"/>
     <use x="406.347656" xlink:href="#DejaVuSans-72"/>
     <use x="447.460938" xlink:href="#DejaVuSans-69"/>
     <use x="475.244141" xlink:href="#DejaVuSans-62"/>
     <use x="538.720703" xlink:href="#DejaVuSans-75"/>
     <use x="602.099609" xlink:href="#DejaVuSans-74"/>
     <use x="641.308594" xlink:href="#DejaVuSans-69"/>
     <use x="669.091797" xlink:href="#DejaVuSans-6f"/>
     <use x="730.273438" xlink:href="#DejaVuSans-6e"/>
     <use x="793.652344" xlink:href="#DejaVuSans-20"/>
     <use x="825.439453" xlink:href="#DejaVuSans-66"/>
     <use x="860.644531" xlink:href="#DejaVuSans-6f"/>
     <use x="921.826172" xlink:href="#DejaVuSans-72"/>
     <use x="962.939453" xlink:href="#DejaVuSans-20"/>
     <use x="994.726562" xlink:href="#DejaVuSans-41"/>
     <use x="1063.134766" xlink:href="#DejaVuSans-42"/>
     <use x="1131.738281" xlink:href="#DejaVuSans-49"/>
     <use x="1161.230469" xlink:href="#DejaVuSans-44"/>
     <use x="1238.232422" xlink:href="#DejaVuSans-45"/>
     <use x="1301.416016" xlink:href="#DejaVuSans-20"/>
     <use x="1333.203125" xlink:href="#DejaVuSans-49"/>
     <use x="1362.695312" xlink:href="#DejaVuSans-49"/>
     <use x="1392.1875" xlink:href="#DejaVuSans-20"/>
     <use x="1423.974609" xlink:href="#DejaVuSans-73"/>
     <use x="1476.074219" xlink:href="#DejaVuSans-75"/>
     <use x="1539.453125" xlink:href="#DejaVuSans-62"/>
     <use x="1602.929688" xlink:href="#DejaVuSans-73"/>
     <use x="1655.029297" xlink:href="#DejaVuSans-65"/>
     <use x="1716.552734" xlink:href="#DejaVuSans-74"/>
    </g>
   </g>
  </g>
  <g id="axes_3">
   <g id="patch_74">
    <path d="M 72 216 
L 432 216 
L 432 43.2 
L 72 43.2 
z
" style="fill:#ffffff;"/>
   </g>
   <g id="patch_75">
    <path clip-path="url(#p217da64c79)" d="M 72 194.4 
L 283.830403 194.4 
L 283.830403 151.2 
L 72 151.2 
z
" style="fill:#1f77b4;"/>
   </g>
   <g id="patch_76">
    <path clip-path="url(#p217da64c79)" d="M 72 108 
L 260.13913 108 
L 260.13913 64.8 
L 72 64.8 
z
" style="fill:#1f77b4;"/>
   </g>
   <g id="patch_77">
    <path clip-path="url(#p217da64c79)" d="M 283.830403 194.4 
L 432 194.4 
L 432 151.2 
L 283.830403 151.2 
z
" style="fill:#ff7f0e;"/>
   </g>
   <g id="patch_78">
    <path clip-path="url(#p217da64c79)" d="M 260.13913 108 
L 432 108 
L 432 64.8 
L 260.13913 64.8 
z
" style="fill:#ff7f0e;"/>
   </g>
   <g id="matplotlib.axis_5">
    <g id="xtick_7">
     <g id="line2d_11">
      <g>
       <use style="stroke:#000000;stroke-width:2.5;" x="72" xlink:href="#mc93137b2d0" y="221"/>
      </g>
     </g>
     <g id="text_15">
      <!-- 0.0 -->
      <g transform="translate(56.096875 244.696875)scale(0.2 -0.2)">
       <use xlink:href="#DejaVuSans-30"/>
       <use x="63.623047" xlink:href="#DejaVuSans-2e"/>
       <use x="95.410156" xlink:href="#DejaVuSans-30"/>
      </g>
     </g>
    </g>
    <g id="xtick_8">
     <g id="line2d_12">
      <g>
       <use style="stroke:#000000;stroke-width:2.5;" x="252" xlink:href="#mc93137b2d0" y="221"/>
      </g>
     </g>
     <g id="text_16">
      <!-- 0.5 -->
      <g transform="translate(236.096875 244.696875)scale(0.2 -0.2)">
       <use xlink:href="#DejaVuSans-30"/>
       <use x="63.623047" xlink:href="#DejaVuSans-2e"/>
       <use x="95.410156" xlink:href="#DejaVuSans-35"/>
      </g>
     </g>
    </g>
    <g id="xtick_9">
     <g id="line2d_13">
      <g>
       <use style="stroke:#000000;stroke-width:2.5;" x="432" xlink:href="#mc93137b2d0" y="221"/>
      </g>
     </g>
     <g id="text_17">
      <!-- 1.0 -->
      <g transform="translate(416.096875 244.696875)scale(0.2 -0.2)">
       <use xlink:href="#DejaVuSans-31"/>
       <use x="63.623047" xlink:href="#DejaVuSans-2e"/>
       <use x="95.410156" xlink:href="#DejaVuSans-30"/>
      </g>
     </g>
    </g>
   </g>
   <g id="matplotlib.axis_6">
    <g id="ytick_5">
     <g id="line2d_14"/>
     <g id="text_18">
      <!-- private -->
      <g transform="translate(-1.215625 170.720313)scale(0.2 -0.2)">
       <use xlink:href="#DejaVuSans-70"/>
       <use x="63.476562" xlink:href="#DejaVuSans-72"/>
       <use x="104.589844" xlink:href="#DejaVuSans-69"/>
       <use x="132.373047" xlink:href="#DejaVuSans-76"/>
       <use x="191.552734" xlink:href="#DejaVuSans-61"/>
       <use x="252.832031" xlink:href="#DejaVuSans-74"/>
       <use x="292.041016" xlink:href="#DejaVuSans-65"/>
      </g>
      <!-- set -->
      <g transform="translate(38.934375 193.115938)scale(0.2 -0.2)">
       <use xlink:href="#DejaVuSans-73"/>
       <use x="52.099609" xlink:href="#DejaVuSans-65"/>
       <use x="113.623047" xlink:href="#DejaVuSans-74"/>
      </g>
     </g>
    </g>
    <g id="ytick_6">
     <g id="line2d_15"/>
     <g id="text_19">
      <!-- public -->
      <g transform="translate(9.321875 84.320312)scale(0.2 -0.2)">
       <use xlink:href="#DejaVuSans-70"/>
       <use x="63.476562" xlink:href="#DejaVuSans-75"/>
       <use x="126.855469" xlink:href="#DejaVuSans-62"/>
       <use x="190.332031" xlink:href="#DejaVuSans-6c"/>
       <use x="218.115234" xlink:href="#DejaVuSans-69"/>
       <use x="245.898438" xlink:href="#DejaVuSans-63"/>
      </g>
      <!-- set -->
      <g transform="translate(38.934375 106.715937)scale(0.2 -0.2)">
       <use xlink:href="#DejaVuSans-73"/>
       <use x="52.099609" xlink:href="#DejaVuSans-65"/>
       <use x="113.623047" xlink:href="#DejaVuSans-74"/>
      </g>
     </g>
    </g>
   </g>
   <g id="patch_79">
    <path d="M 72 221 
L 432 221 
" style="fill:none;stroke:#000000;stroke-linecap:square;stroke-linejoin:miter;stroke-width:2.5;"/>
   </g>
   <g id="text_20">
    <!-- n=569 -->
    <g transform="translate(141.915202 177.12)scale(0.2 -0.2)">
     <defs>
      <path d="M 678 2906 
L 4684 2906 
L 4684 2381 
L 678 2381 
L 678 2906 
z
M 678 1631 
L 4684 1631 
L 4684 1100 
L 678 1100 
L 678 1631 
z
" id="DejaVuSans-3d" transform="scale(0.015625)"/>
      <path d="M 2113 2584 
Q 1688 2584 1439 2293 
Q 1191 2003 1191 1497 
Q 1191 994 1439 701 
Q 1688 409 2113 409 
Q 2538 409 2786 701 
Q 3034 994 3034 1497 
Q 3034 2003 2786 2293 
Q 2538 2584 2113 2584 
z
M 3366 4563 
L 3366 3988 
Q 3128 4100 2886 4159 
Q 2644 4219 2406 4219 
Q 1781 4219 1451 3797 
Q 1122 3375 1075 2522 
Q 1259 2794 1537 2939 
Q 1816 3084 2150 3084 
Q 2853 3084 3261 2657 
Q 3669 2231 3669 1497 
Q 3669 778 3244 343 
Q 2819 -91 2113 -91 
Q 1303 -91 875 529 
Q 447 1150 447 2328 
Q 447 3434 972 4092 
Q 1497 4750 2381 4750 
Q 2619 4750 2861 4703 
Q 3103 4656 3366 4563 
z
" id="DejaVuSans-36" transform="scale(0.015625)"/>
      <path d="M 703 97 
L 703 672 
Q 941 559 1184 500 
Q 1428 441 1663 441 
Q 2288 441 2617 861 
Q 2947 1281 2994 2138 
Q 2813 1869 2534 1725 
Q 2256 1581 1919 1581 
Q 1219 1581 811 2004 
Q 403 2428 403 3163 
Q 403 3881 828 4315 
Q 1253 4750 1959 4750 
Q 2769 4750 3195 4129 
Q 3622 3509 3622 2328 
Q 3622 1225 3098 567 
Q 2575 -91 1691 -91 
Q 1453 -91 1209 -44 
Q 966 3 703 97 
z
M 1959 2075 
Q 2384 2075 2632 2365 
Q 2881 2656 2881 3163 
Q 2881 3666 2632 3958 
Q 2384 4250 1959 4250 
Q 1534 4250 1286 3958 
Q 1038 3666 1038 3163 
Q 1038 2656 1286 2365 
Q 1534 2075 1959 2075 
z
" id="DejaVuSans-39" transform="scale(0.015625)"/>
     </defs>
     <use xlink:href="#DejaVuSans-6e"/>
     <use x="63.378906" xlink:href="#DejaVuSans-3d"/>
     <use x="147.167969" xlink:href="#DejaVuSans-35"/>
     <use x="210.791016" xlink:href="#DejaVuSans-36"/>
     <use x="274.414062" xlink:href="#DejaVuSans-39"/>
    </g>
   </g>
   <g id="text_21">
    <!-- n=601 -->
    <g transform="translate(130.069565 90.72)scale(0.2 -0.2)">
     <use xlink:href="#DejaVuSans-6e"/>
     <use x="63.378906" xlink:href="#DejaVuSans-3d"/>
     <use x="147.167969" xlink:href="#DejaVuSans-36"/>
     <use x="210.791016" xlink:href="#DejaVuSans-30"/>
     <use x="274.414062" xlink:href="#DejaVuSans-31"/>
    </g>
   </g>
   <g id="text_22">
    <!-- n=398 -->
    <g transform="translate(321.915202 177.12)scale(0.2 -0.2)">
     <defs>
      <path d="M 2597 2516 
Q 3050 2419 3304 2112 
Q 3559 1806 3559 1356 
Q 3559 666 3084 287 
Q 2609 -91 1734 -91 
Q 1441 -91 1130 -33 
Q 819 25 488 141 
L 488 750 
Q 750 597 1062 519 
Q 1375 441 1716 441 
Q 2309 441 2620 675 
Q 2931 909 2931 1356 
Q 2931 1769 2642 2001 
Q 2353 2234 1838 2234 
L 1294 2234 
L 1294 2753 
L 1863 2753 
Q 2328 2753 2575 2939 
Q 2822 3125 2822 3475 
Q 2822 3834 2567 4026 
Q 2313 4219 1838 4219 
Q 1578 4219 1281 4162 
Q 984 4106 628 3988 
L 628 4550 
Q 988 4650 1302 4700 
Q 1616 4750 1894 4750 
Q 2613 4750 3031 4423 
Q 3450 4097 3450 3541 
Q 3450 3153 3228 2886 
Q 3006 2619 2597 2516 
z
" id="DejaVuSans-33" transform="scale(0.015625)"/>
      <path d="M 2034 2216 
Q 1584 2216 1326 1975 
Q 1069 1734 1069 1313 
Q 1069 891 1326 650 
Q 1584 409 2034 409 
Q 2484 409 2743 651 
Q 3003 894 3003 1313 
Q 3003 1734 2745 1975 
Q 2488 2216 2034 2216 
z
M 1403 2484 
Q 997 2584 770 2862 
Q 544 3141 544 3541 
Q 544 4100 942 4425 
Q 1341 4750 2034 4750 
Q 2731 4750 3128 4425 
Q 3525 4100 3525 3541 
Q 3525 3141 3298 2862 
Q 3072 2584 2669 2484 
Q 3125 2378 3379 2068 
Q 3634 1759 3634 1313 
Q 3634 634 3220 271 
Q 2806 -91 2034 -91 
Q 1263 -91 848 271 
Q 434 634 434 1313 
Q 434 1759 690 2068 
Q 947 2378 1403 2484 
z
M 1172 3481 
Q 1172 3119 1398 2916 
Q 1625 2713 2034 2713 
Q 2441 2713 2670 2916 
Q 2900 3119 2900 3481 
Q 2900 3844 2670 4047 
Q 2441 4250 2034 4250 
Q 1625 4250 1398 4047 
Q 1172 3844 1172 3481 
z
" id="DejaVuSans-38" transform="scale(0.015625)"/>
     </defs>
     <use xlink:href="#DejaVuSans-6e"/>
     <use x="63.378906" xlink:href="#DejaVuSans-3d"/>
     <use x="147.167969" xlink:href="#DejaVuSans-33"/>
     <use x="210.791016" xlink:href="#DejaVuSans-39"/>
     <use x="274.414062" xlink:href="#DejaVuSans-38"/>
    </g>
   </g>
   <g id="text_23">
    <!-- n=549 -->
    <g transform="translate(310.069565 90.72)scale(0.2 -0.2)">
     <defs>
      <path d="M 2419 4116 
L 825 1625 
L 2419 1625 
L 2419 4116 
z
M 2253 4666 
L 3047 4666 
L 3047 1625 
L 3713 1625 
L 3713 1100 
L 3047 1100 
L 3047 0 
L 2419 0 
L 2419 1100 
L 313 1100 
L 313 1709 
L 2253 4666 
z
" id="DejaVuSans-34" transform="scale(0.015625)"/>
     </defs>
     <use xlink:href="#DejaVuSans-6e"/>
     <use x="63.378906" xlink:href="#DejaVuSans-3d"/>
     <use x="147.167969" xlink:href="#DejaVuSans-35"/>
     <use x="210.791016" xlink:href="#DejaVuSans-34"/>
     <use x="274.414062" xlink:href="#DejaVuSans-39"/>
    </g>
   </g>
   <g id="text_24">
    <!-- n=967 -->
    <g transform="translate(72 146.016)scale(0.2 -0.2)">
     <defs>
      <path d="M 525 4666 
L 3525 4666 
L 3525 4397 
L 1831 0 
L 1172 0 
L 2766 4134 
L 525 4134 
L 525 4666 
z
" id="DejaVuSans-37" transform="scale(0.015625)"/>
     </defs>
     <use xlink:href="#DejaVuSans-6e"/>
     <use x="63.378906" xlink:href="#DejaVuSans-3d"/>
     <use x="147.167969" xlink:href="#DejaVuSans-39"/>
     <use x="210.791016" xlink:href="#DejaVuSans-36"/>
     <use x="274.414062" xlink:href="#DejaVuSans-37"/>
    </g>
   </g>
   <g id="text_25">
    <!-- n=1150 -->
    <g transform="translate(72 59.616)scale(0.2 -0.2)">
     <use xlink:href="#DejaVuSans-6e"/>
     <use x="63.378906" xlink:href="#DejaVuSans-3d"/>
     <use x="147.167969" xlink:href="#DejaVuSans-31"/>
     <use x="210.791016" xlink:href="#DejaVuSans-31"/>
     <use x="274.414062" xlink:href="#DejaVuSans-35"/>
     <use x="338.037109" xlink:href="#DejaVuSans-30"/>
    </g>
   </g>
   <g id="text_26">
    <!-- (a) -->
    <g transform="translate(403.2 47.615)scale(0.16 -0.16)">
     <defs>
      <path d="M 2106 1575 
Q 1756 1575 1579 1456 
Q 1403 1338 1403 1106 
Q 1403 894 1545 773 
Q 1688 653 1941 653 
Q 2256 653 2472 879 
Q 2688 1106 2688 1447 
L 2688 1575 
L 2106 1575 
z
M 3816 1997 
L 3816 0 
L 2688 0 
L 2688 519 
Q 2463 200 2181 54 
Q 1900 -91 1497 -91 
Q 953 -91 614 226 
Q 275 544 275 1050 
Q 275 1666 698 1953 
Q 1122 2241 2028 2241 
L 2688 2241 
L 2688 2328 
Q 2688 2594 2478 2717 
Q 2269 2841 1825 2841 
Q 1466 2841 1156 2769 
Q 847 2697 581 2553 
L 581 3406 
Q 941 3494 1303 3539 
Q 1666 3584 2028 3584 
Q 2975 3584 3395 3211 
Q 3816 2838 3816 1997 
z
" id="DejaVuSans-Bold-61" transform="scale(0.015625)"/>
     </defs>
     <use xlink:href="#DejaVuSans-Bold-28"/>
     <use x="45.703125" xlink:href="#DejaVuSans-Bold-61"/>
     <use x="113.183594" xlink:href="#DejaVuSans-Bold-29"/>
    </g>
   </g>
   <g id="text_27">
    <!-- Subjects distribution -->
    <g transform="translate(128.690625 37.2)scale(0.24 -0.24)">
     <defs>
      <path d="M 603 3500 
L 1178 3500 
L 1178 -63 
Q 1178 -731 923 -1031 
Q 669 -1331 103 -1331 
L -116 -1331 
L -116 -844 
L 38 -844 
Q 366 -844 484 -692 
Q 603 -541 603 -63 
L 603 3500 
z
M 603 4863 
L 1178 4863 
L 1178 4134 
L 603 4134 
L 603 4863 
z
" id="DejaVuSans-6a" transform="scale(0.015625)"/>
     </defs>
     <use xlink:href="#DejaVuSans-53"/>
     <use x="63.476562" xlink:href="#DejaVuSans-75"/>
     <use x="126.855469" xlink:href="#DejaVuSans-62"/>
     <use x="190.332031" xlink:href="#DejaVuSans-6a"/>
     <use x="218.115234" xlink:href="#DejaVuSans-65"/>
     <use x="279.638672" xlink:href="#DejaVuSans-63"/>
     <use x="334.619141" xlink:href="#DejaVuSans-74"/>
     <use x="373.828125" xlink:href="#DejaVuSans-73"/>
     <use x="425.927734" xlink:href="#DejaVuSans-20"/>
     <use x="457.714844" xlink:href="#DejaVuSans-64"/>
     <use x="521.191406" xlink:href="#DejaVuSans-69"/>
     <use x="548.974609" xlink:href="#DejaVuSans-73"/>
     <use x="601.074219" xlink:href="#DejaVuSans-74"/>
     <use x="640.283203" xlink:href="#DejaVuSans-72"/>
     <use x="681.396484" xlink:href="#DejaVuSans-69"/>
     <use x="709.179688" xlink:href="#DejaVuSans-62"/>
     <use x="772.65625" xlink:href="#DejaVuSans-75"/>
     <use x="836.035156" xlink:href="#DejaVuSans-74"/>
     <use x="875.244141" xlink:href="#DejaVuSans-69"/>
     <use x="903.027344" xlink:href="#DejaVuSans-6f"/>
     <use x="964.208984" xlink:href="#DejaVuSans-6e"/>
    </g>
   </g>
   <g id="legend_1">
    <g id="patch_80">
     <path d="M 163.8 123.188438 
L 191.8 123.188438 
L 191.8 113.388438 
L 163.8 113.388438 
z
" style="fill:#1f77b4;"/>
    </g>
    <g id="text_28">
     <!-- Control -->
     <g transform="translate(203 123.188438)scale(0.14 -0.14)">
      <defs>
       <path d="M 4122 4306 
L 4122 3641 
Q 3803 3938 3442 4084 
Q 3081 4231 2675 4231 
Q 1875 4231 1450 3742 
Q 1025 3253 1025 2328 
Q 1025 1406 1450 917 
Q 1875 428 2675 428 
Q 3081 428 3442 575 
Q 3803 722 4122 1019 
L 4122 359 
Q 3791 134 3420 21 
Q 3050 -91 2638 -91 
Q 1578 -91 968 557 
Q 359 1206 359 2328 
Q 359 3453 968 4101 
Q 1578 4750 2638 4750 
Q 3056 4750 3426 4639 
Q 3797 4528 4122 4306 
z
" id="DejaVuSans-43" transform="scale(0.015625)"/>
      </defs>
      <use xlink:href="#DejaVuSans-43"/>
      <use x="69.824219" xlink:href="#DejaVuSans-6f"/>
      <use x="131.005859" xlink:href="#DejaVuSans-6e"/>
      <use x="194.384766" xlink:href="#DejaVuSans-74"/>
      <use x="233.59375" xlink:href="#DejaVuSans-72"/>
      <use x="272.457031" xlink:href="#DejaVuSans-6f"/>
      <use x="333.638672" xlink:href="#DejaVuSans-6c"/>
     </g>
    </g>
    <g id="patch_81">
     <path d="M 163.8 143.737813 
L 191.8 143.737813 
L 191.8 133.937813 
L 163.8 133.937813 
z
" style="fill:#ff7f0e;"/>
    </g>
    <g id="text_29">
     <!-- Autism Spectrum Disorder -->
     <g transform="translate(203 143.737813)scale(0.14 -0.14)">
      <defs>
       <path d="M 3328 2828 
Q 3544 3216 3844 3400 
Q 4144 3584 4550 3584 
Q 5097 3584 5394 3201 
Q 5691 2819 5691 2113 
L 5691 0 
L 5113 0 
L 5113 2094 
Q 5113 2597 4934 2840 
Q 4756 3084 4391 3084 
Q 3944 3084 3684 2787 
Q 3425 2491 3425 1978 
L 3425 0 
L 2847 0 
L 2847 2094 
Q 2847 2600 2669 2842 
Q 2491 3084 2119 3084 
Q 1678 3084 1418 2786 
Q 1159 2488 1159 1978 
L 1159 0 
L 581 0 
L 581 3500 
L 1159 3500 
L 1159 2956 
Q 1356 3278 1631 3431 
Q 1906 3584 2284 3584 
Q 2666 3584 2933 3390 
Q 3200 3197 3328 2828 
z
" id="DejaVuSans-6d" transform="scale(0.015625)"/>
      </defs>
      <use xlink:href="#DejaVuSans-41"/>
      <use x="68.408203" xlink:href="#DejaVuSans-75"/>
      <use x="131.787109" xlink:href="#DejaVuSans-74"/>
      <use x="170.996094" xlink:href="#DejaVuSans-69"/>
      <use x="198.779297" xlink:href="#DejaVuSans-73"/>
      <use x="250.878906" xlink:href="#DejaVuSans-6d"/>
      <use x="348.291016" xlink:href="#DejaVuSans-20"/>
      <use x="380.078125" xlink:href="#DejaVuSans-53"/>
      <use x="443.554688" xlink:href="#DejaVuSans-70"/>
      <use x="507.03125" xlink:href="#DejaVuSans-65"/>
      <use x="568.554688" xlink:href="#DejaVuSans-63"/>
      <use x="623.535156" xlink:href="#DejaVuSans-74"/>
      <use x="662.744141" xlink:href="#DejaVuSans-72"/>
      <use x="703.857422" xlink:href="#DejaVuSans-75"/>
      <use x="767.236328" xlink:href="#DejaVuSans-6d"/>
      <use x="864.648438" xlink:href="#DejaVuSans-20"/>
      <use x="896.435547" xlink:href="#DejaVuSans-44"/>
      <use x="973.4375" xlink:href="#DejaVuSans-69"/>
      <use x="1001.220703" xlink:href="#DejaVuSans-73"/>
      <use x="1053.320312" xlink:href="#DejaVuSans-6f"/>
      <use x="1114.501953" xlink:href="#DejaVuSans-72"/>
      <use x="1153.865234" xlink:href="#DejaVuSans-64"/>
      <use x="1217.341797" xlink:href="#DejaVuSans-65"/>
      <use x="1278.865234" xlink:href="#DejaVuSans-72"/>
     </g>
    </g>
   </g>
  </g>
  <g id="axes_4">
   <g id="patch_82">
    <path d="M 561.6 216 
L 921.6 216 
L 921.6 43.2 
L 561.6 43.2 
z
" style="fill:#ffffff;"/>
   </g>
   <g id="patch_83">
    <path clip-path="url(#pb746b7cd18)" d="M 561.6 194.4 
L 836.346639 194.4 
L 836.346639 151.2 
L 561.6 151.2 
z
" style="fill:#1f77b4;"/>
   </g>
   <g id="patch_84">
    <path clip-path="url(#pb746b7cd18)" d="M 561.6 108 
L 849.6 108 
L 849.6 64.8 
L 561.6 64.8 
z
" style="fill:#1f77b4;"/>
   </g>
   <g id="patch_85">
    <path clip-path="url(#pb746b7cd18)" d="M 836.346639 194.4 
L 921.6 194.4 
L 921.6 151.2 
L 836.346639 151.2 
z
" style="fill:#ff7f0e;"/>
   </g>
   <g id="patch_86">
    <path clip-path="url(#pb746b7cd18)" d="M 849.6 108 
L 921.6 108 
L 921.6 64.8 
L 849.6 64.8 
z
" style="fill:#ff7f0e;"/>
   </g>
   <g id="matplotlib.axis_7">
    <g id="xtick_10">
     <g id="line2d_16">
      <g>
       <use style="stroke:#000000;stroke-width:2.5;" x="561.6" xlink:href="#mc93137b2d0" y="221"/>
      </g>
     </g>
     <g id="text_30">
      <!-- 0.0 -->
      <g transform="translate(545.696875 244.696875)scale(0.2 -0.2)">
       <use xlink:href="#DejaVuSans-30"/>
       <use x="63.623047" xlink:href="#DejaVuSans-2e"/>
       <use x="95.410156" xlink:href="#DejaVuSans-30"/>
      </g>
     </g>
    </g>
    <g id="xtick_11">
     <g id="line2d_17">
      <g>
       <use style="stroke:#000000;stroke-width:2.5;" x="741.6" xlink:href="#mc93137b2d0" y="221"/>
      </g>
     </g>
     <g id="text_31">
      <!-- 0.5 -->
      <g transform="translate(725.696875 244.696875)scale(0.2 -0.2)">
       <use xlink:href="#DejaVuSans-30"/>
       <use x="63.623047" xlink:href="#DejaVuSans-2e"/>
       <use x="95.410156" xlink:href="#DejaVuSans-35"/>
      </g>
     </g>
    </g>
    <g id="xtick_12">
     <g id="line2d_18">
      <g>
       <use style="stroke:#000000;stroke-width:2.5;" x="921.6" xlink:href="#mc93137b2d0" y="221"/>
      </g>
     </g>
     <g id="text_32">
      <!-- 1.0 -->
      <g transform="translate(905.696875 244.696875)scale(0.2 -0.2)">
       <use xlink:href="#DejaVuSans-31"/>
       <use x="63.623047" xlink:href="#DejaVuSans-2e"/>
       <use x="95.410156" xlink:href="#DejaVuSans-30"/>
      </g>
     </g>
    </g>
   </g>
   <g id="matplotlib.axis_8">
    <g id="ytick_7">
     <g id="line2d_19"/>
     <g id="text_33">
      <!-- private -->
      <g transform="translate(488.384375 170.720313)scale(0.2 -0.2)">
       <use xlink:href="#DejaVuSans-70"/>
       <use x="63.476562" xlink:href="#DejaVuSans-72"/>
       <use x="104.589844" xlink:href="#DejaVuSans-69"/>
       <use x="132.373047" xlink:href="#DejaVuSans-76"/>
       <use x="191.552734" xlink:href="#DejaVuSans-61"/>
       <use x="252.832031" xlink:href="#DejaVuSans-74"/>
       <use x="292.041016" xlink:href="#DejaVuSans-65"/>
      </g>
      <!-- set -->
      <g transform="translate(528.534375 193.115938)scale(0.2 -0.2)">
       <use xlink:href="#DejaVuSans-73"/>
       <use x="52.099609" xlink:href="#DejaVuSans-65"/>
       <use x="113.623047" xlink:href="#DejaVuSans-74"/>
      </g>
     </g>
    </g>
    <g id="ytick_8">
     <g id="line2d_20"/>
     <g id="text_34">
      <!-- public -->
      <g transform="translate(498.921875 84.320312)scale(0.2 -0.2)">
       <use xlink:href="#DejaVuSans-70"/>
       <use x="63.476562" xlink:href="#DejaVuSans-75"/>
       <use x="126.855469" xlink:href="#DejaVuSans-62"/>
       <use x="190.332031" xlink:href="#DejaVuSans-6c"/>
       <use x="218.115234" xlink:href="#DejaVuSans-69"/>
       <use x="245.898438" xlink:href="#DejaVuSans-63"/>
      </g>
      <!-- set -->
      <g transform="translate(528.534375 106.715937)scale(0.2 -0.2)">
       <use xlink:href="#DejaVuSans-73"/>
       <use x="52.099609" xlink:href="#DejaVuSans-65"/>
       <use x="113.623047" xlink:href="#DejaVuSans-74"/>
      </g>
     </g>
    </g>
   </g>
   <g id="patch_87">
    <path d="M 561.6 221 
L 921.6 221 
" style="fill:none;stroke:#000000;stroke-linecap:square;stroke-linejoin:miter;stroke-width:2.5;"/>
   </g>
   <g id="text_35">
    <!-- n=738 -->
    <g transform="translate(662.97332 177.12)scale(0.2 -0.2)">
     <use xlink:href="#DejaVuSans-6e"/>
     <use x="63.378906" xlink:href="#DejaVuSans-3d"/>
     <use x="147.167969" xlink:href="#DejaVuSans-37"/>
     <use x="210.791016" xlink:href="#DejaVuSans-33"/>
     <use x="274.414062" xlink:href="#DejaVuSans-38"/>
    </g>
   </g>
   <g id="text_36">
    <!-- n=920 -->
    <g transform="translate(669.6 90.72)scale(0.2 -0.2)">
     <defs>
      <path d="M 1228 531 
L 3431 531 
L 3431 0 
L 469 0 
L 469 531 
Q 828 903 1448 1529 
Q 2069 2156 2228 2338 
Q 2531 2678 2651 2914 
Q 2772 3150 2772 3378 
Q 2772 3750 2511 3984 
Q 2250 4219 1831 4219 
Q 1534 4219 1204 4116 
Q 875 4013 500 3803 
L 500 4441 
Q 881 4594 1212 4672 
Q 1544 4750 1819 4750 
Q 2544 4750 2975 4387 
Q 3406 4025 3406 3419 
Q 3406 3131 3298 2873 
Q 3191 2616 2906 2266 
Q 2828 2175 2409 1742 
Q 1991 1309 1228 531 
z
" id="DejaVuSans-32" transform="scale(0.015625)"/>
     </defs>
     <use xlink:href="#DejaVuSans-6e"/>
     <use x="63.378906" xlink:href="#DejaVuSans-3d"/>
     <use x="147.167969" xlink:href="#DejaVuSans-39"/>
     <use x="210.791016" xlink:href="#DejaVuSans-32"/>
     <use x="274.414062" xlink:href="#DejaVuSans-30"/>
    </g>
   </g>
   <g id="text_37">
    <!-- n=229 -->
    <g transform="translate(842.97332 177.12)scale(0.2 -0.2)">
     <use xlink:href="#DejaVuSans-6e"/>
     <use x="63.378906" xlink:href="#DejaVuSans-3d"/>
     <use x="147.167969" xlink:href="#DejaVuSans-32"/>
     <use x="210.791016" xlink:href="#DejaVuSans-32"/>
     <use x="274.414062" xlink:href="#DejaVuSans-39"/>
    </g>
   </g>
   <g id="text_38">
    <!-- n=230 -->
    <g transform="translate(849.6 90.72)scale(0.2 -0.2)">
     <use xlink:href="#DejaVuSans-6e"/>
     <use x="63.378906" xlink:href="#DejaVuSans-3d"/>
     <use x="147.167969" xlink:href="#DejaVuSans-32"/>
     <use x="210.791016" xlink:href="#DejaVuSans-33"/>
     <use x="274.414062" xlink:href="#DejaVuSans-30"/>
    </g>
   </g>
   <g id="text_39">
    <!-- n=967 -->
    <g transform="translate(561.6 146.016)scale(0.2 -0.2)">
     <use xlink:href="#DejaVuSans-6e"/>
     <use x="63.378906" xlink:href="#DejaVuSans-3d"/>
     <use x="147.167969" xlink:href="#DejaVuSans-39"/>
     <use x="210.791016" xlink:href="#DejaVuSans-36"/>
     <use x="274.414062" xlink:href="#DejaVuSans-37"/>
    </g>
   </g>
   <g id="text_40">
    <!-- n=1150 -->
    <g transform="translate(561.6 59.616)scale(0.2 -0.2)">
     <use xlink:href="#DejaVuSans-6e"/>
     <use x="63.378906" xlink:href="#DejaVuSans-3d"/>
     <use x="147.167969" xlink:href="#DejaVuSans-31"/>
     <use x="210.791016" xlink:href="#DejaVuSans-31"/>
     <use x="274.414062" xlink:href="#DejaVuSans-35"/>
     <use x="338.037109" xlink:href="#DejaVuSans-30"/>
    </g>
   </g>
   <g id="text_41">
    <!-- (b) -->
    <g transform="translate(892.8 47.615)scale(0.16 -0.16)">
     <defs>
      <path d="M 2400 722 
Q 2759 722 2948 984 
Q 3138 1247 3138 1747 
Q 3138 2247 2948 2509 
Q 2759 2772 2400 2772 
Q 2041 2772 1848 2508 
Q 1656 2244 1656 1747 
Q 1656 1250 1848 986 
Q 2041 722 2400 722 
z
M 1656 2988 
Q 1888 3294 2169 3439 
Q 2450 3584 2816 3584 
Q 3463 3584 3878 3070 
Q 4294 2556 4294 1747 
Q 4294 938 3878 423 
Q 3463 -91 2816 -91 
Q 2450 -91 2169 54 
Q 1888 200 1656 506 
L 1656 0 
L 538 0 
L 538 4863 
L 1656 4863 
L 1656 2988 
z
" id="DejaVuSans-Bold-62" transform="scale(0.015625)"/>
     </defs>
     <use xlink:href="#DejaVuSans-Bold-28"/>
     <use x="45.703125" xlink:href="#DejaVuSans-Bold-62"/>
     <use x="117.285156" xlink:href="#DejaVuSans-Bold-29"/>
    </g>
   </g>
   <g id="text_42">
    <!-- Sex distribution -->
    <g transform="translate(647.50875 37.2)scale(0.24 -0.24)">
     <defs>
      <path d="M 3513 3500 
L 2247 1797 
L 3578 0 
L 2900 0 
L 1881 1375 
L 863 0 
L 184 0 
L 1544 1831 
L 300 3500 
L 978 3500 
L 1906 2253 
L 2834 3500 
L 3513 3500 
z
" id="DejaVuSans-78" transform="scale(0.015625)"/>
     </defs>
     <use xlink:href="#DejaVuSans-53"/>
     <use x="63.476562" xlink:href="#DejaVuSans-65"/>
     <use x="123.25" xlink:href="#DejaVuSans-78"/>
     <use x="182.429688" xlink:href="#DejaVuSans-20"/>
     <use x="214.216797" xlink:href="#DejaVuSans-64"/>
     <use x="277.693359" xlink:href="#DejaVuSans-69"/>
     <use x="305.476562" xlink:href="#DejaVuSans-73"/>
     <use x="357.576172" xlink:href="#DejaVuSans-74"/>
     <use x="396.785156" xlink:href="#DejaVuSans-72"/>
     <use x="437.898438" xlink:href="#DejaVuSans-69"/>
     <use x="465.681641" xlink:href="#DejaVuSans-62"/>
     <use x="529.158203" xlink:href="#DejaVuSans-75"/>
     <use x="592.537109" xlink:href="#DejaVuSans-74"/>
     <use x="631.746094" xlink:href="#DejaVuSans-69"/>
     <use x="659.529297" xlink:href="#DejaVuSans-6f"/>
     <use x="720.710938" xlink:href="#DejaVuSans-6e"/>
    </g>
   </g>
   <g id="legend_2">
    <g id="patch_88">
     <path d="M 808.2 123.188438 
L 836.2 123.188438 
L 836.2 113.388438 
L 808.2 113.388438 
z
" style="fill:#1f77b4;"/>
    </g>
    <g id="text_43">
     <!-- Male -->
     <g transform="translate(847.4 123.188438)scale(0.14 -0.14)">
      <defs>
       <path d="M 628 4666 
L 1569 4666 
L 2759 1491 
L 3956 4666 
L 4897 4666 
L 4897 0 
L 4281 0 
L 4281 4097 
L 3078 897 
L 2444 897 
L 1241 4097 
L 1241 0 
L 628 0 
L 628 4666 
z
" id="DejaVuSans-4d" transform="scale(0.015625)"/>
      </defs>
      <use xlink:href="#DejaVuSans-4d"/>
      <use x="86.279297" xlink:href="#DejaVuSans-61"/>
      <use x="147.558594" xlink:href="#DejaVuSans-6c"/>
      <use x="175.341797" xlink:href="#DejaVuSans-65"/>
     </g>
    </g>
    <g id="patch_89">
     <path d="M 808.2 143.737813 
L 836.2 143.737813 
L 836.2 133.937813 
L 808.2 133.937813 
z
" style="fill:#ff7f0e;"/>
    </g>
    <g id="text_44">
     <!-- Female -->
     <g transform="translate(847.4 143.737813)scale(0.14 -0.14)">
      <defs>
       <path d="M 628 4666 
L 3309 4666 
L 3309 4134 
L 1259 4134 
L 1259 2759 
L 3109 2759 
L 3109 2228 
L 1259 2228 
L 1259 0 
L 628 0 
L 628 4666 
z
" id="DejaVuSans-46" transform="scale(0.015625)"/>
      </defs>
      <use xlink:href="#DejaVuSans-46"/>
      <use x="52.019531" xlink:href="#DejaVuSans-65"/>
      <use x="113.542969" xlink:href="#DejaVuSans-6d"/>
      <use x="210.955078" xlink:href="#DejaVuSans-61"/>
      <use x="272.234375" xlink:href="#DejaVuSans-6c"/>
      <use x="300.017578" xlink:href="#DejaVuSans-65"/>
     </g>
    </g>
   </g>
  </g>
  <g id="axes_5">
   <g id="patch_90">
    <path d="M 1036.8 216 
L 1396.8 216 
L 1396.8 43.2 
L 1036.8 43.2 
z
" style="fill:#ffffff;"/>
   </g>
   <g id="PolyCollection_1">
    <defs>
     <path d="M 1037.97027 -302.4 
L 1037.97027 -302.781046 
L 1041.08881 -303.174117 
L 1044.20735 -303.879055 
L 1047.32589 -305.063098 
L 1050.44443 -306.928194 
L 1053.56297 -309.686776 
L 1056.68151 -313.521833 
L 1059.80005 -318.537 
L 1062.91859 -324.708149 
L 1066.03713 -331.851008 
L 1069.15567 -339.617394 
L 1072.27421 -347.525776 
L 1075.39275 -355.022158 
L 1078.51129 -361.558331 
L 1081.62983 -366.669853 
L 1084.74837 -370.037245 
L 1087.86691 -371.52 
L 1090.98545 -371.161239 
L 1094.10399 -369.167422 
L 1097.22253 -365.870154 
L 1100.34107 -361.676329 
L 1103.45961 -357.011723 
L 1106.57815 -352.264284 
L 1109.69669 -347.73639 
L 1112.81523 -343.616517 
L 1115.93377 -339.976871 
L 1119.05231 -336.795275 
L 1122.17085 -333.991612 
L 1125.28939 -331.465911 
L 1128.40793 -329.127994 
L 1131.52647 -326.914434 
L 1134.64501 -324.79378 
L 1137.76355 -322.763429 
L 1140.88209 -320.841662 
L 1144.00063 -319.057613 
L 1147.11917 -317.441294 
L 1150.23771 -316.01526 
L 1153.35625 -314.789057 
L 1156.47479 -313.757004 
L 1159.59333 -312.899398 
L 1162.71187 -312.186644 
L 1165.83041 -311.58508 
L 1168.94895 -311.062575 
L 1172.06749 -310.591989 
L 1175.18603 -310.151667 
L 1178.30457 -309.723969 
L 1181.42311 -309.294142 
L 1184.54165 -308.851513 
L 1187.66019 -308.393064 
L 1190.77873 -307.927187 
L 1193.89727 -307.474494 
L 1197.01581 -307.063728 
L 1200.13435 -306.723563 
L 1203.25289 -306.473513 
L 1206.37143 -306.317866 
L 1209.48997 -306.244912 
L 1212.60851 -306.231152 
L 1215.72705 -306.248091 
L 1218.84559 -306.268904 
L 1221.96413 -306.273242 
L 1225.08267 -306.249622 
L 1228.20121 -306.195412 
L 1231.31975 -306.114536 
L 1234.43829 -306.0134 
L 1237.55683 -305.896378 
L 1240.67537 -305.762901 
L 1243.79391 -305.6078 
L 1246.91245 -305.424994 
L 1250.03099 -305.212755 
L 1253.14953 -304.977793 
L 1256.26807 -304.736053 
L 1259.38661 -304.509737 
L 1262.50515 -304.321796 
L 1265.62369 -304.189878 
L 1268.74223 -304.121546 
L 1271.86077 -304.111856 
L 1274.97931 -304.143781 
L 1278.09785 -304.191471 
L 1281.21639 -304.225864 
L 1284.33493 -304.221388 
L 1287.45347 -304.161904 
L 1290.57201 -304.044076 
L 1293.69055 -303.877169 
L 1296.80909 -303.67963 
L 1299.92763 -303.473797 
L 1303.04617 -303.280465 
L 1306.16471 -303.114695 
L 1309.28325 -302.983633 
L 1312.40179 -302.886511 
L 1315.52033 -302.816518 
L 1318.63887 -302.763832 
L 1321.75741 -302.718879 
L 1324.87595 -302.674857 
L 1327.99449 -302.628898 
L 1331.11303 -302.581731 
L 1334.23157 -302.536284 
L 1337.35011 -302.495933 
L 1340.46865 -302.463115 
L 1343.58719 -302.438694 
L 1346.70573 -302.422057 
L 1346.70573 -302.4 
L 1346.70573 -302.4 
L 1343.58719 -302.4 
L 1340.46865 -302.4 
L 1337.35011 -302.4 
L 1334.23157 -302.4 
L 1331.11303 -302.4 
L 1327.99449 -302.4 
L 1324.87595 -302.4 
L 1321.75741 -302.4 
L 1318.63887 -302.4 
L 1315.52033 -302.4 
L 1312.40179 -302.4 
L 1309.28325 -302.4 
L 1306.16471 -302.4 
L 1303.04617 -302.4 
L 1299.92763 -302.4 
L 1296.80909 -302.4 
L 1293.69055 -302.4 
L 1290.57201 -302.4 
L 1287.45347 -302.4 
L 1284.33493 -302.4 
L 1281.21639 -302.4 
L 1278.09785 -302.4 
L 1274.97931 -302.4 
L 1271.86077 -302.4 
L 1268.74223 -302.4 
L 1265.62369 -302.4 
L 1262.50515 -302.4 
L 1259.38661 -302.4 
L 1256.26807 -302.4 
L 1253.14953 -302.4 
L 1250.03099 -302.4 
L 1246.91245 -302.4 
L 1243.79391 -302.4 
L 1240.67537 -302.4 
L 1237.55683 -302.4 
L 1234.43829 -302.4 
L 1231.31975 -302.4 
L 1228.20121 -302.4 
L 1225.08267 -302.4 
L 1221.96413 -302.4 
L 1218.84559 -302.4 
L 1215.72705 -302.4 
L 1212.60851 -302.4 
L 1209.48997 -302.4 
L 1206.37143 -302.4 
L 1203.25289 -302.4 
L 1200.13435 -302.4 
L 1197.01581 -302.4 
L 1193.89727 -302.4 
L 1190.77873 -302.4 
L 1187.66019 -302.4 
L 1184.54165 -302.4 
L 1181.42311 -302.4 
L 1178.30457 -302.4 
L 1175.18603 -302.4 
L 1172.06749 -302.4 
L 1168.94895 -302.4 
L 1165.83041 -302.4 
L 1162.71187 -302.4 
L 1159.59333 -302.4 
L 1156.47479 -302.4 
L 1153.35625 -302.4 
L 1150.23771 -302.4 
L 1147.11917 -302.4 
L 1144.00063 -302.4 
L 1140.88209 -302.4 
L 1137.76355 -302.4 
L 1134.64501 -302.4 
L 1131.52647 -302.4 
L 1128.40793 -302.4 
L 1125.28939 -302.4 
L 1122.17085 -302.4 
L 1119.05231 -302.4 
L 1115.93377 -302.4 
L 1112.81523 -302.4 
L 1109.69669 -302.4 
L 1106.57815 -302.4 
L 1103.45961 -302.4 
L 1100.34107 -302.4 
L 1097.22253 -302.4 
L 1094.10399 -302.4 
L 1090.98545 -302.4 
L 1087.86691 -302.4 
L 1084.74837 -302.4 
L 1081.62983 -302.4 
L 1078.51129 -302.4 
L 1075.39275 -302.4 
L 1072.27421 -302.4 
L 1069.15567 -302.4 
L 1066.03713 -302.4 
L 1062.91859 -302.4 
L 1059.80005 -302.4 
L 1056.68151 -302.4 
L 1053.56297 -302.4 
L 1050.44443 -302.4 
L 1047.32589 -302.4 
L 1044.20735 -302.4 
L 1041.08881 -302.4 
L 1037.97027 -302.4 
z
" id="mee832d728e"/>
    </defs>
    <g clip-path="url(#pb4bc9c0dab)">
     <use style="fill:#3274a1;" x="0" xlink:href="#mee832d728e" y="432"/>
    </g>
   </g>
   <g id="PolyCollection_2">
    <defs>
     <path d="M 1028.528399 -302.233065 
L 1028.528399 -302.4 
L 1032.095502 -302.4 
L 1035.662605 -302.4 
L 1039.229708 -302.4 
L 1042.796811 -302.4 
L 1046.363914 -302.4 
L 1049.931018 -302.4 
L 1053.498121 -302.4 
L 1057.065224 -302.4 
L 1060.632327 -302.4 
L 1064.19943 -302.4 
L 1067.766533 -302.4 
L 1071.333636 -302.4 
L 1074.900739 -302.4 
L 1078.467842 -302.4 
L 1082.034945 -302.4 
L 1085.602048 -302.4 
L 1089.169151 -302.4 
L 1092.736254 -302.4 
L 1096.303357 -302.4 
L 1099.87046 -302.4 
L 1103.437563 -302.4 
L 1107.004666 -302.4 
L 1110.571769 -302.4 
L 1114.138872 -302.4 
L 1117.705975 -302.4 
L 1121.273078 -302.4 
L 1124.840181 -302.4 
L 1128.407285 -302.4 
L 1131.974388 -302.4 
L 1135.541491 -302.4 
L 1139.108594 -302.4 
L 1142.675697 -302.4 
L 1146.2428 -302.4 
L 1149.809903 -302.4 
L 1153.377006 -302.4 
L 1156.944109 -302.4 
L 1160.511212 -302.4 
L 1164.078315 -302.4 
L 1167.645418 -302.4 
L 1171.212521 -302.4 
L 1174.779624 -302.4 
L 1178.346727 -302.4 
L 1181.91383 -302.4 
L 1185.480933 -302.4 
L 1189.048036 -302.4 
L 1192.615139 -302.4 
L 1196.182242 -302.4 
L 1199.749345 -302.4 
L 1203.316448 -302.4 
L 1206.883552 -302.4 
L 1210.450655 -302.4 
L 1214.017758 -302.4 
L 1217.584861 -302.4 
L 1221.151964 -302.4 
L 1224.719067 -302.4 
L 1228.28617 -302.4 
L 1231.853273 -302.4 
L 1235.420376 -302.4 
L 1238.987479 -302.4 
L 1242.554582 -302.4 
L 1246.121685 -302.4 
L 1249.688788 -302.4 
L 1253.255891 -302.4 
L 1256.822994 -302.4 
L 1260.390097 -302.4 
L 1263.9572 -302.4 
L 1267.524303 -302.4 
L 1271.091406 -302.4 
L 1274.658509 -302.4 
L 1278.225612 -302.4 
L 1281.792715 -302.4 
L 1285.359819 -302.4 
L 1288.926922 -302.4 
L 1292.494025 -302.4 
L 1296.061128 -302.4 
L 1299.628231 -302.4 
L 1303.195334 -302.4 
L 1306.762437 -302.4 
L 1310.32954 -302.4 
L 1313.896643 -302.4 
L 1317.463746 -302.4 
L 1321.030849 -302.4 
L 1324.597952 -302.4 
L 1328.165055 -302.4 
L 1331.732158 -302.4 
L 1335.299261 -302.4 
L 1338.866364 -302.4 
L 1342.433467 -302.4 
L 1346.00057 -302.4 
L 1349.567673 -302.4 
L 1353.134776 -302.4 
L 1356.701879 -302.4 
L 1360.268982 -302.4 
L 1363.836086 -302.4 
L 1367.403189 -302.4 
L 1370.970292 -302.4 
L 1374.537395 -302.4 
L 1378.104498 -302.4 
L 1381.671601 -302.4 
L 1381.671601 -302.379145 
L 1381.671601 -302.379145 
L 1378.104498 -302.36538 
L 1374.537395 -302.346587 
L 1370.970292 -302.323373 
L 1367.403189 -302.297684 
L 1363.836086 -302.272617 
L 1360.268982 -302.251616 
L 1356.701879 -302.237219 
L 1353.134776 -302.229811 
L 1349.567673 -302.226948 
L 1346.00057 -302.223646 
L 1342.433467 -302.213607 
L 1338.866364 -302.190924 
L 1335.299261 -302.151633 
L 1331.732158 -302.094587 
L 1328.165055 -302.02144 
L 1324.597952 -301.935877 
L 1321.030849 -301.842337 
L 1317.463746 -301.744474 
L 1313.896643 -301.643519 
L 1310.32954 -301.536853 
L 1306.762437 -301.417353 
L 1303.195334 -301.274253 
L 1299.628231 -301.095963 
L 1296.061128 -300.874444 
L 1292.494025 -300.609673 
L 1288.926922 -300.312086 
L 1285.359819 -300.00124 
L 1281.792715 -299.700392 
L 1278.225612 -299.428595 
L 1274.658509 -299.193431 
L 1271.091406 -298.987539 
L 1267.524303 -298.790727 
L 1263.9572 -298.577004 
L 1260.390097 -298.323776 
L 1256.822994 -298.019649 
L 1253.255891 -297.66809 
L 1249.688788 -297.2861 
L 1246.121685 -296.898983 
L 1242.554582 -296.533503 
L 1238.987479 -296.211799 
L 1235.420376 -295.947749 
L 1231.853273 -295.746297 
L 1228.28617 -295.605158 
L 1224.719067 -295.517527 
L 1221.151964 -295.474243 
L 1217.584861 -295.464425 
L 1214.017758 -295.47476 
L 1210.450655 -295.488799 
L 1206.883552 -295.48794 
L 1203.316448 -295.454757 
L 1199.749345 -295.37758 
L 1196.182242 -295.253796 
L 1192.615139 -295.089693 
L 1189.048036 -294.89645 
L 1185.480933 -294.684175 
L 1181.91383 -294.456832 
L 1178.346727 -294.210056 
L 1174.779624 -293.931874 
L 1171.212521 -293.604663 
L 1167.645418 -293.206525 
L 1164.078315 -292.711498 
L 1160.511212 -292.089609 
L 1156.944109 -291.308335 
L 1153.377006 -290.336063 
L 1149.809903 -289.146256 
L 1146.2428 -287.719858 
L 1142.675697 -286.044102 
L 1139.108594 -284.108136 
L 1135.541491 -281.898087 
L 1131.974388 -279.394644 
L 1128.407285 -276.574485 
L 1124.840181 -273.414281 
L 1121.273078 -269.894897 
L 1117.705975 -266.004957 
L 1114.138872 -261.746326 
L 1110.571769 -257.146485 
L 1107.004666 -252.281502 
L 1103.437563 -247.307531 
L 1099.87046 -242.490589 
L 1096.303357 -238.218086 
L 1092.736254 -234.975507 
L 1089.169151 -233.28 
L 1085.602048 -233.577979 
L 1082.034945 -236.130905 
L 1078.467842 -240.924631 
L 1074.900739 -247.636315 
L 1071.333636 -255.676933 
L 1067.766533 -264.301746 
L 1064.19943 -272.756466 
L 1060.632327 -280.414664 
L 1057.065224 -286.867873 
L 1053.498121 -291.950364 
L 1049.931018 -295.705077 
L 1046.363914 -298.31452 
L 1042.796811 -300.024839 
L 1039.229708 -301.084303 
L 1035.662605 -301.705621 
L 1032.095502 -302.050989 
L 1028.528399 -302.233065 
z
" id="mf161759ff0"/>
    </defs>
    <g clip-path="url(#pb4bc9c0dab)">
     <use style="fill:#e1812c;" x="0" xlink:href="#mf161759ff0" y="432"/>
    </g>
   </g>
   <g id="patch_91">
    <path clip-path="url(#pb4bc9c0dab)" d="M 1036.8 129.6 
L 1036.8 129.6 
L 1036.8 129.6 
L 1036.8 129.6 
z
" style="fill:#3274a1;"/>
   </g>
   <g id="patch_92">
    <path clip-path="url(#pb4bc9c0dab)" d="M 1036.8 129.6 
L 1036.8 129.6 
L 1036.8 129.6 
L 1036.8 129.6 
z
" style="fill:#e1812c;"/>
   </g>
   <g id="matplotlib.axis_9">
    <g id="xtick_13">
     <g id="line2d_21">
      <g>
       <use style="stroke:#000000;stroke-width:2.5;" x="1036.8" xlink:href="#mc93137b2d0" y="221"/>
      </g>
     </g>
     <g id="text_45">
      <!-- 0 yr -->
      <g transform="translate(1017.229687 244.696875)scale(0.2 -0.2)">
       <defs>
        <path d="M 2059 -325 
Q 1816 -950 1584 -1140 
Q 1353 -1331 966 -1331 
L 506 -1331 
L 506 -850 
L 844 -850 
Q 1081 -850 1212 -737 
Q 1344 -625 1503 -206 
L 1606 56 
L 191 3500 
L 800 3500 
L 1894 763 
L 2988 3500 
L 3597 3500 
L 2059 -325 
z
" id="DejaVuSans-79" transform="scale(0.015625)"/>
       </defs>
       <use xlink:href="#DejaVuSans-30"/>
       <use x="63.623047" xlink:href="#DejaVuSans-20"/>
       <use x="95.410156" xlink:href="#DejaVuSans-79"/>
       <use x="154.589844" xlink:href="#DejaVuSans-72"/>
      </g>
     </g>
    </g>
    <g id="xtick_14">
     <g id="line2d_22">
      <g>
       <use style="stroke:#000000;stroke-width:2.5;" x="1216.8" xlink:href="#mc93137b2d0" y="221"/>
      </g>
     </g>
     <g id="text_46">
      <!-- 40 yr -->
      <g transform="translate(1190.867188 244.696875)scale(0.2 -0.2)">
       <use xlink:href="#DejaVuSans-34"/>
       <use x="63.623047" xlink:href="#DejaVuSans-30"/>
       <use x="127.246094" xlink:href="#DejaVuSans-20"/>
       <use x="159.033203" xlink:href="#DejaVuSans-79"/>
       <use x="218.212891" xlink:href="#DejaVuSans-72"/>
      </g>
     </g>
    </g>
    <g id="xtick_15">
     <g id="line2d_23">
      <g>
       <use style="stroke:#000000;stroke-width:2.5;" x="1396.8" xlink:href="#mc93137b2d0" y="221"/>
      </g>
     </g>
     <g id="text_47">
      <!-- 80 yr -->
      <g transform="translate(1370.867188 244.696875)scale(0.2 -0.2)">
       <use xlink:href="#DejaVuSans-38"/>
       <use x="63.623047" xlink:href="#DejaVuSans-30"/>
       <use x="127.246094" xlink:href="#DejaVuSans-20"/>
       <use x="159.033203" xlink:href="#DejaVuSans-79"/>
       <use x="218.212891" xlink:href="#DejaVuSans-72"/>
      </g>
     </g>
    </g>
   </g>
   <g id="matplotlib.axis_10">
    <g id="ytick_9">
     <g id="line2d_24"/>
    </g>
   </g>
   <g id="line2d_25">
    <path clip-path="url(#pb4bc9c0dab)" d="M 1084.518493 62.639127 
L 1084.518493 129.6 
" style="fill:none;stroke-dasharray:0,0;stroke-dashoffset:0;"/>
   </g>
   <g id="line2d_26">
    <path clip-path="url(#pb4bc9c0dab)" d="M 1098.9 70.916434 
L 1098.9 129.6 
" style="fill:none;stroke-dasharray:0,0;stroke-dashoffset:0;"/>
   </g>
   <g id="line2d_27">
    <path clip-path="url(#pb4bc9c0dab)" d="M 1126.8 100.824748 
L 1126.8 129.6 
" style="fill:none;stroke-dasharray:0,0;stroke-dashoffset:0;"/>
   </g>
   <g id="line2d_28">
    <path clip-path="url(#pb4bc9c0dab)" d="M 1083.645 129.6 
L 1083.645 195.206404 
" style="fill:none;stroke-dasharray:0,0;stroke-dashoffset:0;"/>
   </g>
   <g id="line2d_29">
    <path clip-path="url(#pb4bc9c0dab)" d="M 1099.425 129.6 
L 1099.425 188.910317 
" style="fill:none;stroke-dasharray:0,0;stroke-dashoffset:0;"/>
   </g>
   <g id="line2d_30">
    <path clip-path="url(#pb4bc9c0dab)" d="M 1131.3 129.6 
L 1131.3 152.375302 
" style="fill:none;stroke-dasharray:0,0;stroke-dashoffset:0;"/>
   </g>
   <g id="patch_93">
    <path d="M 1036.8 221 
L 1396.8 221 
" style="fill:none;stroke:#000000;stroke-linecap:square;stroke-linejoin:miter;stroke-width:2.5;"/>
   </g>
   <g id="text_48">
    <!-- (c) -->
    <g transform="translate(1368 47.615)scale(0.16 -0.16)">
     <defs>
      <path d="M 3366 3391 
L 3366 2478 
Q 3138 2634 2908 2709 
Q 2678 2784 2431 2784 
Q 1963 2784 1702 2511 
Q 1441 2238 1441 1747 
Q 1441 1256 1702 982 
Q 1963 709 2431 709 
Q 2694 709 2930 787 
Q 3166 866 3366 1019 
L 3366 103 
Q 3103 6 2833 -42 
Q 2563 -91 2291 -91 
Q 1344 -91 809 395 
Q 275 881 275 1747 
Q 275 2613 809 3098 
Q 1344 3584 2291 3584 
Q 2566 3584 2833 3536 
Q 3100 3488 3366 3391 
z
" id="DejaVuSans-Bold-63" transform="scale(0.015625)"/>
     </defs>
     <use xlink:href="#DejaVuSans-Bold-28"/>
     <use x="45.703125" xlink:href="#DejaVuSans-Bold-63"/>
     <use x="104.980469" xlink:href="#DejaVuSans-Bold-29"/>
    </g>
   </g>
   <g id="text_49">
    <!-- Age distribution -->
    <g transform="translate(1121.3925 37.2)scale(0.24 -0.24)">
     <defs>
      <path d="M 2906 1791 
Q 2906 2416 2648 2759 
Q 2391 3103 1925 3103 
Q 1463 3103 1205 2759 
Q 947 2416 947 1791 
Q 947 1169 1205 825 
Q 1463 481 1925 481 
Q 2391 481 2648 825 
Q 2906 1169 2906 1791 
z
M 3481 434 
Q 3481 -459 3084 -895 
Q 2688 -1331 1869 -1331 
Q 1566 -1331 1297 -1286 
Q 1028 -1241 775 -1147 
L 775 -588 
Q 1028 -725 1275 -790 
Q 1522 -856 1778 -856 
Q 2344 -856 2625 -561 
Q 2906 -266 2906 331 
L 2906 616 
Q 2728 306 2450 153 
Q 2172 0 1784 0 
Q 1141 0 747 490 
Q 353 981 353 1791 
Q 353 2603 747 3093 
Q 1141 3584 1784 3584 
Q 2172 3584 2450 3431 
Q 2728 3278 2906 2969 
L 2906 3500 
L 3481 3500 
L 3481 434 
z
" id="DejaVuSans-67" transform="scale(0.015625)"/>
     </defs>
     <use xlink:href="#DejaVuSans-41"/>
     <use x="68.408203" xlink:href="#DejaVuSans-67"/>
     <use x="131.884766" xlink:href="#DejaVuSans-65"/>
     <use x="193.408203" xlink:href="#DejaVuSans-20"/>
     <use x="225.195312" xlink:href="#DejaVuSans-64"/>
     <use x="288.671875" xlink:href="#DejaVuSans-69"/>
     <use x="316.455078" xlink:href="#DejaVuSans-73"/>
     <use x="368.554688" xlink:href="#DejaVuSans-74"/>
     <use x="407.763672" xlink:href="#DejaVuSans-72"/>
     <use x="448.876953" xlink:href="#DejaVuSans-69"/>
     <use x="476.660156" xlink:href="#DejaVuSans-62"/>
     <use x="540.136719" xlink:href="#DejaVuSans-75"/>
     <use x="603.515625" xlink:href="#DejaVuSans-74"/>
     <use x="642.724609" xlink:href="#DejaVuSans-69"/>
     <use x="670.507812" xlink:href="#DejaVuSans-6f"/>
     <use x="731.689453" xlink:href="#DejaVuSans-6e"/>
    </g>
   </g>
   <g id="legend_3">
    <g id="patch_94">
     <path d="M 1276.65375 186.939063 
L 1304.65375 186.939063 
L 1304.65375 177.139062 
L 1276.65375 177.139062 
z
" style="fill:#3274a1;"/>
    </g>
    <g id="text_50">
     <!-- public set -->
     <g transform="translate(1315.85375 186.939063)scale(0.14 -0.14)">
      <use xlink:href="#DejaVuSans-70"/>
      <use x="63.476562" xlink:href="#DejaVuSans-75"/>
      <use x="126.855469" xlink:href="#DejaVuSans-62"/>
      <use x="190.332031" xlink:href="#DejaVuSans-6c"/>
      <use x="218.115234" xlink:href="#DejaVuSans-69"/>
      <use x="245.898438" xlink:href="#DejaVuSans-63"/>
      <use x="300.878906" xlink:href="#DejaVuSans-20"/>
      <use x="332.666016" xlink:href="#DejaVuSans-73"/>
      <use x="384.765625" xlink:href="#DejaVuSans-65"/>
      <use x="446.289062" xlink:href="#DejaVuSans-74"/>
     </g>
    </g>
    <g id="patch_95">
     <path d="M 1276.65375 207.488438 
L 1304.65375 207.488438 
L 1304.65375 197.688437 
L 1276.65375 197.688437 
z
" style="fill:#e1812c;"/>
    </g>
    <g id="text_51">
     <!-- private set -->
     <g transform="translate(1315.85375 207.488438)scale(0.14 -0.14)">
      <use xlink:href="#DejaVuSans-70"/>
      <use x="63.476562" xlink:href="#DejaVuSans-72"/>
      <use x="104.589844" xlink:href="#DejaVuSans-69"/>
      <use x="132.373047" xlink:href="#DejaVuSans-76"/>
      <use x="191.552734" xlink:href="#DejaVuSans-61"/>
      <use x="252.832031" xlink:href="#DejaVuSans-74"/>
      <use x="292.041016" xlink:href="#DejaVuSans-65"/>
      <use x="353.564453" xlink:href="#DejaVuSans-20"/>
      <use x="385.351562" xlink:href="#DejaVuSans-73"/>
      <use x="437.451172" xlink:href="#DejaVuSans-65"/>
      <use x="498.974609" xlink:href="#DejaVuSans-74"/>
     </g>
    </g>
   </g>
  </g>
 </g>
 <defs>
  <clipPath id="pa98950ad56">
   <rect height="86.4" width="432" x="144" y="302.4"/>
  </clipPath>
  <clipPath id="p4ec3f4a1b7">
   <rect height="86.4" width="432" x="864" y="302.4"/>
  </clipPath>
  <clipPath id="p217da64c79">
   <rect height="172.8" width="360" x="72" y="43.2"/>
  </clipPath>
  <clipPath id="pb746b7cd18">
   <rect height="172.8" width="360" x="561.6" y="43.2"/>
  </clipPath>
  <clipPath id="pb4bc9c0dab">
   <rect height="172.8" width="360" x="1036.8" y="43.2"/>
  </clipPath>
 </defs>
</svg>
